<svg width="1073" height="692" viewBox="0 0 1073 692" fill="none" xmlns="http://www.w3.org/2000/svg">
<path d="M346.21 219.7C346.983 219.7 347.61 219.073 347.61 218.3C347.61 217.527 346.983 216.9 346.21 216.9C345.437 216.9 344.81 217.527 344.81 218.3C344.81 219.073 345.437 219.7 346.21 219.7Z" fill="white"/>
<path d="M358.77 219.7C359.543 219.7 360.17 219.073 360.17 218.3C360.17 217.527 359.543 216.9 358.77 216.9C357.997 216.9 357.37 217.527 357.37 218.3C357.37 219.073 357.997 219.7 358.77 219.7Z" fill="white"/>
<path d="M371.34 219.7C372.113 219.7 372.74 219.073 372.74 218.3C372.74 217.527 372.113 216.9 371.34 216.9C370.567 216.9 369.94 217.527 369.94 218.3C369.94 219.073 370.567 219.7 371.34 219.7Z" fill="white"/>
<path d="M383.9 219.7C384.673 219.7 385.3 219.073 385.3 218.3C385.3 217.527 384.673 216.9 383.9 216.9C383.127 216.9 382.5 217.527 382.5 218.3C382.5 219.073 383.127 219.7 383.9 219.7Z" fill="white"/>
<path d="M396.47 219.7C397.243 219.7 397.87 219.073 397.87 218.3C397.87 217.527 397.243 216.9 396.47 216.9C395.697 216.9 395.07 217.527 395.07 218.3C395.07 219.073 395.697 219.7 396.47 219.7Z" fill="white"/>
<path d="M410.43 218.3C410.43 219.07 409.8 219.7 409.03 219.7C408.26 219.7 407.63 219.08 407.63 218.3C407.63 217.53 408.26 216.9 409.03 216.9C409.8 216.9 410.43 217.52 410.43 218.3Z" fill="white"/>
<path d="M421.59 219.7C422.363 219.7 422.99 219.073 422.99 218.3C422.99 217.527 422.363 216.9 421.59 216.9C420.817 216.9 420.19 217.527 420.19 218.3C420.19 219.073 420.817 219.7 421.59 219.7Z" fill="white"/>
<path d="M435.55 218.3C435.55 219.07 434.92 219.7 434.15 219.7C433.38 219.7 432.75 219.08 432.75 218.3C432.75 217.53 433.38 216.9 434.15 216.9C434.93 216.9 435.55 217.52 435.55 218.3Z" fill="white"/>
<path d="M446.72 219.7C447.493 219.7 448.12 219.073 448.12 218.3C448.12 217.527 447.493 216.9 446.72 216.9C445.947 216.9 445.32 217.527 445.32 218.3C445.32 219.073 445.947 219.7 446.72 219.7Z" fill="white"/>
<path d="M460.68 218.3C460.68 219.07 460.05 219.7 459.28 219.7C458.51 219.7 457.88 219.08 457.88 218.3C457.88 217.53 458.51 216.9 459.28 216.9C460.06 216.9 460.68 217.52 460.68 218.3Z" fill="white"/>
<path d="M471.85 219.7C472.623 219.7 473.25 219.073 473.25 218.3C473.25 217.527 472.623 216.9 471.85 216.9C471.077 216.9 470.45 217.527 470.45 218.3C470.45 219.073 471.077 219.7 471.85 219.7Z" fill="white"/>
<path d="M346.21 230.86C346.983 230.86 347.61 230.233 347.61 229.46C347.61 228.687 346.983 228.06 346.21 228.06C345.437 228.06 344.81 228.687 344.81 229.46C344.81 230.233 345.437 230.86 346.21 230.86Z" fill="white"/>
<path d="M358.77 230.86C359.543 230.86 360.17 230.233 360.17 229.46C360.17 228.687 359.543 228.06 358.77 228.06C357.997 228.06 357.37 228.687 357.37 229.46C357.37 230.233 357.997 230.86 358.77 230.86Z" fill="white"/>
<path d="M371.34 230.86C372.113 230.86 372.74 230.233 372.74 229.46C372.74 228.687 372.113 228.06 371.34 228.06C370.567 228.06 369.94 228.687 369.94 229.46C369.94 230.233 370.567 230.86 371.34 230.86Z" fill="white"/>
<path d="M383.9 230.86C384.673 230.86 385.3 230.233 385.3 229.46C385.3 228.687 384.673 228.06 383.9 228.06C383.127 228.06 382.5 228.687 382.5 229.46C382.5 230.233 383.127 230.86 383.9 230.86Z" fill="white"/>
<path d="M396.47 230.86C397.243 230.86 397.87 230.233 397.87 229.46C397.87 228.687 397.243 228.06 396.47 228.06C395.697 228.06 395.07 228.687 395.07 229.46C395.07 230.233 395.697 230.86 396.47 230.86Z" fill="white"/>
<path d="M410.43 229.46C410.43 230.23 409.8 230.86 409.03 230.86C408.26 230.86 407.63 230.24 407.63 229.46C407.63 228.69 408.26 228.06 409.03 228.06C409.8 228.07 410.43 228.69 410.43 229.46Z" fill="white"/>
<path d="M421.59 230.86C422.363 230.86 422.99 230.233 422.99 229.46C422.99 228.687 422.363 228.06 421.59 228.06C420.817 228.06 420.19 228.687 420.19 229.46C420.19 230.233 420.817 230.86 421.59 230.86Z" fill="white"/>
<path d="M435.55 229.46C435.55 230.23 434.92 230.86 434.15 230.86C433.38 230.86 432.75 230.24 432.75 229.46C432.75 228.69 433.38 228.06 434.15 228.06C434.93 228.07 435.55 228.69 435.55 229.46Z" fill="white"/>
<path d="M446.72 230.86C447.493 230.86 448.12 230.233 448.12 229.46C448.12 228.687 447.493 228.06 446.72 228.06C445.947 228.06 445.32 228.687 445.32 229.46C445.32 230.233 445.947 230.86 446.72 230.86Z" fill="white"/>
<path d="M460.68 229.46C460.68 230.23 460.05 230.86 459.28 230.86C458.51 230.86 457.88 230.24 457.88 229.46C457.88 228.69 458.51 228.06 459.28 228.06C460.06 228.07 460.68 228.69 460.68 229.46Z" fill="white"/>
<path d="M471.85 230.86C472.623 230.86 473.25 230.233 473.25 229.46C473.25 228.687 472.623 228.06 471.85 228.06C471.077 228.06 470.45 228.687 470.45 229.46C470.45 230.233 471.077 230.86 471.85 230.86Z" fill="white"/>
<path d="M347.61 240.63C347.61 241.4 346.98 242.03 346.21 242.03C345.44 242.03 344.81 241.4 344.81 240.63C344.81 239.86 345.43 239.23 346.21 239.23C346.98 239.24 347.61 239.86 347.61 240.63Z" fill="white"/>
<path d="M360.17 240.63C360.17 241.4 359.55 242.03 358.77 242.03C358 242.03 357.37 241.4 357.37 240.63C357.37 239.86 358 239.23 358.77 239.23C359.55 239.24 360.17 239.86 360.17 240.63Z" fill="white"/>
<path d="M372.73 240.63C372.73 241.4 372.1 242.03 371.33 242.03C370.56 242.03 369.93 241.4 369.93 240.63C369.93 239.86 370.55 239.23 371.33 239.23C372.11 239.24 372.73 239.86 372.73 240.63Z" fill="white"/>
<path d="M385.3 240.63C385.3 241.4 384.68 242.03 383.9 242.03C383.13 242.03 382.5 241.4 382.5 240.63C382.5 239.86 383.13 239.23 383.9 239.23C384.67 239.24 385.3 239.86 385.3 240.63Z" fill="white"/>
<path d="M397.86 240.63C397.86 241.4 397.23 242.03 396.46 242.03C395.69 242.03 395.06 241.4 395.06 240.63C395.06 239.86 395.68 239.23 396.46 239.23C397.24 239.24 397.86 239.86 397.86 240.63Z" fill="white"/>
<path d="M410.43 240.63C410.43 241.4 409.8 242.03 409.03 242.03C408.26 242.03 407.63 241.4 407.63 240.63C407.63 239.86 408.26 239.23 409.03 239.23C409.8 239.24 410.43 239.86 410.43 240.63Z" fill="white"/>
<path d="M422.99 240.63C422.99 241.4 422.36 242.03 421.59 242.03C420.82 242.03 420.19 241.4 420.19 240.63C420.19 239.86 420.81 239.23 421.59 239.23C422.36 239.24 422.99 239.86 422.99 240.63Z" fill="white"/>
<path d="M435.55 240.63C435.55 241.4 434.92 242.03 434.15 242.03C433.38 242.03 432.75 241.4 432.75 240.63C432.75 239.86 433.38 239.23 434.15 239.23C434.93 239.24 435.55 239.86 435.55 240.63Z" fill="white"/>
<path d="M448.12 240.63C448.12 241.4 447.49 242.03 446.72 242.03C445.95 242.03 445.32 241.4 445.32 240.63C445.32 239.86 445.94 239.23 446.72 239.23C447.49 239.24 448.12 239.86 448.12 240.63Z" fill="white"/>
<path d="M460.68 240.63C460.68 241.4 460.05 242.03 459.28 242.03C458.51 242.03 457.88 241.4 457.88 240.63C457.88 239.86 458.51 239.23 459.28 239.23C460.06 239.24 460.68 239.86 460.68 240.63Z" fill="white"/>
<path d="M473.25 240.63C473.25 241.4 472.63 242.03 471.85 242.03C471.07 242.03 470.45 241.4 470.45 240.63C470.45 239.86 471.07 239.23 471.85 239.23C472.63 239.23 473.25 239.86 473.25 240.63Z" fill="white"/>
<path d="M347.61 251.8C347.61 252.57 346.98 253.2 346.21 253.2C345.44 253.2 344.81 252.58 344.81 251.8C344.81 251.03 345.43 250.4 346.21 250.4C346.98 250.4 347.61 251.03 347.61 251.8Z" fill="white"/>
<path d="M360.17 251.8C360.17 252.57 359.55 253.2 358.77 253.2C358 253.2 357.37 252.58 357.37 251.8C357.37 251.03 358 250.4 358.77 250.4C359.55 250.4 360.17 251.03 360.17 251.8Z" fill="white"/>
<path d="M372.73 251.8C372.73 252.57 372.1 253.2 371.33 253.2C370.56 253.2 369.93 252.58 369.93 251.8C369.93 251.03 370.55 250.4 371.33 250.4C372.11 250.4 372.73 251.03 372.73 251.8Z" fill="white"/>
<path d="M385.3 251.8C385.3 252.57 384.68 253.2 383.9 253.2C383.13 253.2 382.5 252.58 382.5 251.8C382.5 251.03 383.13 250.4 383.9 250.4C384.67 250.4 385.3 251.03 385.3 251.8Z" fill="white"/>
<path d="M397.86 251.8C397.86 252.57 397.23 253.2 396.46 253.2C395.69 253.2 395.06 252.58 395.06 251.8C395.06 251.03 395.68 250.4 396.46 250.4C397.24 250.4 397.86 251.03 397.86 251.8Z" fill="white"/>
<path d="M410.43 251.8C410.43 252.57 409.8 253.2 409.03 253.2C408.26 253.2 407.63 252.58 407.63 251.8C407.63 251.03 408.26 250.4 409.03 250.4C409.8 250.4 410.43 251.03 410.43 251.8Z" fill="white"/>
<path d="M422.99 251.8C422.99 252.57 422.36 253.2 421.59 253.2C420.82 253.2 420.19 252.58 420.19 251.8C420.19 251.03 420.81 250.4 421.59 250.4C422.36 250.4 422.99 251.03 422.99 251.8Z" fill="white"/>
<path d="M435.55 251.8C435.55 252.57 434.92 253.2 434.15 253.2C433.38 253.2 432.75 252.58 432.75 251.8C432.75 251.03 433.38 250.4 434.15 250.4C434.93 250.4 435.55 251.03 435.55 251.8Z" fill="white"/>
<path d="M448.12 251.8C448.12 252.57 447.49 253.2 446.72 253.2C445.95 253.2 445.32 252.58 445.32 251.8C445.32 251.03 445.94 250.4 446.72 250.4C447.49 250.4 448.12 251.03 448.12 251.8Z" fill="white"/>
<path d="M460.68 251.8C460.68 252.57 460.05 253.2 459.28 253.2C458.51 253.2 457.88 252.58 457.88 251.8C457.88 251.03 458.51 250.4 459.28 250.4C460.06 250.4 460.68 251.03 460.68 251.8Z" fill="white"/>
<path d="M473.25 251.8C473.25 252.57 472.63 253.2 471.85 253.2C471.07 253.2 470.45 252.58 470.45 251.8C470.45 251.03 471.07 250.4 471.85 250.4C472.63 250.4 473.25 251.03 473.25 251.8Z" fill="white"/>
<path d="M346.21 264.37C346.983 264.37 347.61 263.743 347.61 262.97C347.61 262.197 346.983 261.57 346.21 261.57C345.437 261.57 344.81 262.197 344.81 262.97C344.81 263.743 345.437 264.37 346.21 264.37Z" fill="white"/>
<path d="M358.77 264.37C359.543 264.37 360.17 263.743 360.17 262.97C360.17 262.197 359.543 261.57 358.77 261.57C357.997 261.57 357.37 262.197 357.37 262.97C357.37 263.743 357.997 264.37 358.77 264.37Z" fill="white"/>
<path d="M371.34 264.37C372.113 264.37 372.74 263.743 372.74 262.97C372.74 262.197 372.113 261.57 371.34 261.57C370.567 261.57 369.94 262.197 369.94 262.97C369.94 263.743 370.567 264.37 371.34 264.37Z" fill="white"/>
<path d="M383.9 264.37C384.673 264.37 385.3 263.743 385.3 262.97C385.3 262.197 384.673 261.57 383.9 261.57C383.127 261.57 382.5 262.197 382.5 262.97C382.5 263.743 383.127 264.37 383.9 264.37Z" fill="white"/>
<path d="M396.47 264.37C397.243 264.37 397.87 263.743 397.87 262.97C397.87 262.197 397.243 261.57 396.47 261.57C395.697 261.57 395.07 262.197 395.07 262.97C395.07 263.743 395.697 264.37 396.47 264.37Z" fill="white"/>
<path d="M410.43 262.97C410.43 263.74 409.8 264.37 409.03 264.37C408.26 264.37 407.63 263.75 407.63 262.97C407.63 262.19 408.26 261.57 409.03 261.57C409.8 261.57 410.43 262.2 410.43 262.97Z" fill="white"/>
<path d="M421.59 264.37C422.363 264.37 422.99 263.743 422.99 262.97C422.99 262.197 422.363 261.57 421.59 261.57C420.817 261.57 420.19 262.197 420.19 262.97C420.19 263.743 420.817 264.37 421.59 264.37Z" fill="white"/>
<path d="M435.55 262.97C435.55 263.74 434.92 264.37 434.15 264.37C433.38 264.37 432.75 263.75 432.75 262.97C432.75 262.19 433.38 261.57 434.15 261.57C434.93 261.57 435.55 262.2 435.55 262.97Z" fill="white"/>
<path d="M446.72 264.37C447.493 264.37 448.12 263.743 448.12 262.97C448.12 262.197 447.493 261.57 446.72 261.57C445.947 261.57 445.32 262.197 445.32 262.97C445.32 263.743 445.947 264.37 446.72 264.37Z" fill="white"/>
<path d="M460.68 262.97C460.68 263.74 460.05 264.37 459.28 264.37C458.51 264.37 457.88 263.75 457.88 262.97C457.88 262.19 458.51 261.57 459.28 261.57C460.06 261.57 460.68 262.2 460.68 262.97Z" fill="white"/>
<path d="M471.85 264.37C472.623 264.37 473.25 263.743 473.25 262.97C473.25 262.197 472.623 261.57 471.85 261.57C471.077 261.57 470.45 262.197 470.45 262.97C470.45 263.743 471.077 264.37 471.85 264.37Z" fill="white"/>
<path d="M346.21 275.54C346.983 275.54 347.61 274.913 347.61 274.14C347.61 273.367 346.983 272.74 346.21 272.74C345.437 272.74 344.81 273.367 344.81 274.14C344.81 274.913 345.437 275.54 346.21 275.54Z" fill="white"/>
<path d="M358.77 275.54C359.543 275.54 360.17 274.913 360.17 274.14C360.17 273.367 359.543 272.74 358.77 272.74C357.997 272.74 357.37 273.367 357.37 274.14C357.37 274.913 357.997 275.54 358.77 275.54Z" fill="white"/>
<path d="M371.34 275.54C372.113 275.54 372.74 274.913 372.74 274.14C372.74 273.367 372.113 272.74 371.34 272.74C370.567 272.74 369.94 273.367 369.94 274.14C369.94 274.913 370.567 275.54 371.34 275.54Z" fill="white"/>
<path d="M383.9 275.54C384.673 275.54 385.3 274.913 385.3 274.14C385.3 273.367 384.673 272.74 383.9 272.74C383.127 272.74 382.5 273.367 382.5 274.14C382.5 274.913 383.127 275.54 383.9 275.54Z" fill="white"/>
<path d="M396.47 275.54C397.243 275.54 397.87 274.913 397.87 274.14C397.87 273.367 397.243 272.74 396.47 272.74C395.697 272.74 395.07 273.367 395.07 274.14C395.07 274.913 395.697 275.54 396.47 275.54Z" fill="white"/>
<path d="M410.43 274.14C410.43 274.91 409.8 275.54 409.03 275.54C408.26 275.54 407.63 274.91 407.63 274.14C407.63 273.37 408.26 272.74 409.03 272.74C409.8 272.74 410.43 273.36 410.43 274.14Z" fill="white"/>
<path d="M421.59 275.54C422.363 275.54 422.99 274.913 422.99 274.14C422.99 273.367 422.363 272.74 421.59 272.74C420.817 272.74 420.19 273.367 420.19 274.14C420.19 274.913 420.817 275.54 421.59 275.54Z" fill="white"/>
<path d="M435.55 274.14C435.55 274.91 434.92 275.54 434.15 275.54C433.38 275.54 432.75 274.91 432.75 274.14C432.75 273.37 433.38 272.74 434.15 272.74C434.93 272.74 435.55 273.36 435.55 274.14Z" fill="white"/>
<path d="M446.72 275.54C447.493 275.54 448.12 274.913 448.12 274.14C448.12 273.367 447.493 272.74 446.72 272.74C445.947 272.74 445.32 273.367 445.32 274.14C445.32 274.913 445.947 275.54 446.72 275.54Z" fill="white"/>
<path d="M460.68 274.14C460.68 274.91 460.05 275.54 459.28 275.54C458.51 275.54 457.88 274.91 457.88 274.14C457.88 273.37 458.51 272.74 459.28 272.74C460.06 272.74 460.68 273.36 460.68 274.14Z" fill="white"/>
<path d="M471.85 275.54C472.623 275.54 473.25 274.913 473.25 274.14C473.25 273.367 472.623 272.74 471.85 272.74C471.077 272.74 470.45 273.367 470.45 274.14C470.45 274.913 471.077 275.54 471.85 275.54Z" fill="white"/>
<path d="M346.21 286.7C346.983 286.7 347.61 286.073 347.61 285.3C347.61 284.527 346.983 283.9 346.21 283.9C345.437 283.9 344.81 284.527 344.81 285.3C344.81 286.073 345.437 286.7 346.21 286.7Z" fill="white"/>
<path d="M358.77 286.7C359.543 286.7 360.17 286.073 360.17 285.3C360.17 284.527 359.543 283.9 358.77 283.9C357.997 283.9 357.37 284.527 357.37 285.3C357.37 286.073 357.997 286.7 358.77 286.7Z" fill="white"/>
<path d="M371.34 286.7C372.113 286.7 372.74 286.073 372.74 285.3C372.74 284.527 372.113 283.9 371.34 283.9C370.567 283.9 369.94 284.527 369.94 285.3C369.94 286.073 370.567 286.7 371.34 286.7Z" fill="white"/>
<path d="M383.9 286.7C384.673 286.7 385.3 286.073 385.3 285.3C385.3 284.527 384.673 283.9 383.9 283.9C383.127 283.9 382.5 284.527 382.5 285.3C382.5 286.073 383.127 286.7 383.9 286.7Z" fill="white"/>
<path d="M396.47 286.7C397.243 286.7 397.87 286.073 397.87 285.3C397.87 284.527 397.243 283.9 396.47 283.9C395.697 283.9 395.07 284.527 395.07 285.3C395.07 286.073 395.697 286.7 396.47 286.7Z" fill="white"/>
<path d="M410.43 285.3C410.43 286.07 409.8 286.7 409.03 286.7C408.26 286.7 407.63 286.08 407.63 285.3C407.63 284.52 408.26 283.9 409.03 283.9C409.8 283.91 410.43 284.53 410.43 285.3Z" fill="white"/>
<path d="M421.59 286.7C422.363 286.7 422.99 286.073 422.99 285.3C422.99 284.527 422.363 283.9 421.59 283.9C420.817 283.9 420.19 284.527 420.19 285.3C420.19 286.073 420.817 286.7 421.59 286.7Z" fill="white"/>
<path d="M435.55 285.3C435.55 286.07 434.92 286.7 434.15 286.7C433.38 286.7 432.75 286.08 432.75 285.3C432.75 284.52 433.38 283.9 434.15 283.9C434.93 283.91 435.55 284.53 435.55 285.3Z" fill="white"/>
<path d="M446.72 286.7C447.493 286.7 448.12 286.073 448.12 285.3C448.12 284.527 447.493 283.9 446.72 283.9C445.947 283.9 445.32 284.527 445.32 285.3C445.32 286.073 445.947 286.7 446.72 286.7Z" fill="white"/>
<path d="M460.68 285.3C460.68 286.07 460.05 286.7 459.28 286.7C458.51 286.7 457.88 286.08 457.88 285.3C457.88 284.52 458.51 283.9 459.28 283.9C460.06 283.91 460.68 284.53 460.68 285.3Z" fill="white"/>
<path d="M471.85 286.7C472.623 286.7 473.25 286.073 473.25 285.3C473.25 284.527 472.623 283.9 471.85 283.9C471.077 283.9 470.45 284.527 470.45 285.3C470.45 286.073 471.077 286.7 471.85 286.7Z" fill="white"/>
<path d="M347.61 296.47C347.61 297.24 346.98 297.87 346.21 297.87C345.44 297.87 344.81 297.25 344.81 296.47C344.81 295.7 345.43 295.07 346.21 295.07C346.98 295.08 347.61 295.7 347.61 296.47Z" fill="white"/>
<path d="M360.17 296.47C360.17 297.24 359.55 297.87 358.77 297.87C358 297.87 357.37 297.25 357.37 296.47C357.37 295.7 358 295.07 358.77 295.07C359.55 295.08 360.17 295.7 360.17 296.47Z" fill="white"/>
<path d="M372.73 296.47C372.73 297.24 372.1 297.87 371.33 297.87C370.56 297.87 369.93 297.25 369.93 296.47C369.93 295.7 370.55 295.07 371.33 295.07C372.11 295.08 372.73 295.7 372.73 296.47Z" fill="white"/>
<path d="M385.3 296.47C385.3 297.24 384.68 297.87 383.9 297.87C383.13 297.87 382.5 297.25 382.5 296.47C382.5 295.7 383.13 295.07 383.9 295.07C384.67 295.08 385.3 295.7 385.3 296.47Z" fill="white"/>
<path d="M397.86 296.47C397.86 297.24 397.23 297.87 396.46 297.87C395.69 297.87 395.06 297.25 395.06 296.47C395.06 295.7 395.68 295.07 396.46 295.07C397.24 295.08 397.86 295.7 397.86 296.47Z" fill="white"/>
<path d="M410.43 296.47C410.43 297.24 409.8 297.87 409.03 297.87C408.26 297.87 407.63 297.25 407.63 296.47C407.63 295.7 408.26 295.07 409.03 295.07C409.8 295.08 410.43 295.7 410.43 296.47Z" fill="white"/>
<path d="M422.99 296.47C422.99 297.24 422.36 297.87 421.59 297.87C420.82 297.87 420.19 297.25 420.19 296.47C420.19 295.7 420.81 295.07 421.59 295.07C422.36 295.08 422.99 295.7 422.99 296.47Z" fill="white"/>
<path d="M435.55 296.47C435.55 297.24 434.92 297.87 434.15 297.87C433.38 297.87 432.75 297.25 432.75 296.47C432.75 295.7 433.38 295.07 434.15 295.07C434.93 295.08 435.55 295.7 435.55 296.47Z" fill="white"/>
<path d="M448.12 296.47C448.12 297.24 447.49 297.87 446.72 297.87C445.95 297.87 445.32 297.25 445.32 296.47C445.32 295.7 445.94 295.07 446.72 295.07C447.49 295.08 448.12 295.7 448.12 296.47Z" fill="white"/>
<path d="M460.68 296.47C460.68 297.24 460.05 297.87 459.28 297.87C458.51 297.87 457.88 297.25 457.88 296.47C457.88 295.7 458.51 295.07 459.28 295.07C460.06 295.08 460.68 295.7 460.68 296.47Z" fill="white"/>
<path d="M473.25 296.47C473.25 297.24 472.63 297.87 471.85 297.87C471.07 297.87 470.45 297.25 470.45 296.47C470.45 295.7 471.07 295.07 471.85 295.07C472.63 295.07 473.25 295.7 473.25 296.47Z" fill="white"/>
<path d="M347.61 307.64C347.61 308.41 346.98 309.04 346.21 309.04C345.44 309.04 344.81 308.42 344.81 307.64C344.81 306.87 345.43 306.24 346.21 306.24C346.98 306.24 347.61 306.87 347.61 307.64Z" fill="white"/>
<path d="M360.17 307.64C360.17 308.41 359.55 309.04 358.77 309.04C358 309.04 357.37 308.42 357.37 307.64C357.37 306.87 358 306.24 358.77 306.24C359.55 306.24 360.17 306.87 360.17 307.64Z" fill="white"/>
<path d="M372.73 307.64C372.73 308.41 372.1 309.04 371.33 309.04C370.56 309.04 369.93 308.42 369.93 307.64C369.93 306.87 370.55 306.24 371.33 306.24C372.11 306.24 372.73 306.87 372.73 307.64Z" fill="white"/>
<path d="M385.3 307.64C385.3 308.41 384.68 309.04 383.9 309.04C383.13 309.04 382.5 308.42 382.5 307.64C382.5 306.87 383.13 306.24 383.9 306.24C384.67 306.24 385.3 306.87 385.3 307.64Z" fill="white"/>
<path d="M397.86 307.64C397.86 308.41 397.23 309.04 396.46 309.04C395.69 309.04 395.06 308.42 395.06 307.64C395.06 306.87 395.68 306.24 396.46 306.24C397.24 306.24 397.86 306.87 397.86 307.64Z" fill="white"/>
<path d="M410.43 307.64C410.43 308.41 409.8 309.04 409.03 309.04C408.26 309.04 407.63 308.42 407.63 307.64C407.63 306.87 408.26 306.24 409.03 306.24C409.8 306.24 410.43 306.87 410.43 307.64Z" fill="white"/>
<path d="M422.99 307.64C422.99 308.41 422.36 309.04 421.59 309.04C420.82 309.04 420.19 308.42 420.19 307.64C420.19 306.87 420.81 306.24 421.59 306.24C422.36 306.24 422.99 306.87 422.99 307.64Z" fill="white"/>
<path d="M435.55 307.64C435.55 308.41 434.92 309.04 434.15 309.04C433.38 309.04 432.75 308.42 432.75 307.64C432.75 306.87 433.38 306.24 434.15 306.24C434.93 306.24 435.55 306.87 435.55 307.64Z" fill="white"/>
<path d="M448.12 307.64C448.12 308.41 447.49 309.04 446.72 309.04C445.95 309.04 445.32 308.42 445.32 307.64C445.32 306.87 445.94 306.24 446.72 306.24C447.49 306.24 448.12 306.87 448.12 307.64Z" fill="white"/>
<path d="M460.68 307.64C460.68 308.41 460.05 309.04 459.28 309.04C458.51 309.04 457.88 308.42 457.88 307.64C457.88 306.87 458.51 306.24 459.28 306.24C460.06 306.24 460.68 306.87 460.68 307.64Z" fill="white"/>
<path d="M473.25 307.64C473.25 308.41 472.63 309.04 471.85 309.04C471.07 309.04 470.45 308.42 470.45 307.64C470.45 306.87 471.07 306.24 471.85 306.24C472.63 306.24 473.25 306.87 473.25 307.64Z" fill="white"/>
<path d="M346.21 320.21C346.983 320.21 347.61 319.583 347.61 318.81C347.61 318.037 346.983 317.41 346.21 317.41C345.437 317.41 344.81 318.037 344.81 318.81C344.81 319.583 345.437 320.21 346.21 320.21Z" fill="white"/>
<path d="M358.77 320.21C359.543 320.21 360.17 319.583 360.17 318.81C360.17 318.037 359.543 317.41 358.77 317.41C357.997 317.41 357.37 318.037 357.37 318.81C357.37 319.583 357.997 320.21 358.77 320.21Z" fill="white"/>
<path d="M371.34 320.21C372.113 320.21 372.74 319.583 372.74 318.81C372.74 318.037 372.113 317.41 371.34 317.41C370.567 317.41 369.94 318.037 369.94 318.81C369.94 319.583 370.567 320.21 371.34 320.21Z" fill="white"/>
<path d="M383.9 320.21C384.673 320.21 385.3 319.583 385.3 318.81C385.3 318.037 384.673 317.41 383.9 317.41C383.127 317.41 382.5 318.037 382.5 318.81C382.5 319.583 383.127 320.21 383.9 320.21Z" fill="white"/>
<path d="M396.47 320.21C397.243 320.21 397.87 319.583 397.87 318.81C397.87 318.037 397.243 317.41 396.47 317.41C395.697 317.41 395.07 318.037 395.07 318.81C395.07 319.583 395.697 320.21 396.47 320.21Z" fill="white"/>
<path d="M410.43 318.81C410.43 319.58 409.8 320.21 409.03 320.21C408.26 320.21 407.63 319.59 407.63 318.81C407.63 318.03 408.26 317.41 409.03 317.41C409.8 317.41 410.43 318.04 410.43 318.81Z" fill="white"/>
<path d="M421.59 320.21C422.363 320.21 422.99 319.583 422.99 318.81C422.99 318.037 422.363 317.41 421.59 317.41C420.817 317.41 420.19 318.037 420.19 318.81C420.19 319.583 420.817 320.21 421.59 320.21Z" fill="white"/>
<path d="M435.55 318.81C435.55 319.58 434.92 320.21 434.15 320.21C433.38 320.21 432.75 319.59 432.75 318.81C432.75 318.03 433.38 317.41 434.15 317.41C434.93 317.41 435.55 318.04 435.55 318.81Z" fill="white"/>
<path d="M446.72 320.21C447.493 320.21 448.12 319.583 448.12 318.81C448.12 318.037 447.493 317.41 446.72 317.41C445.947 317.41 445.32 318.037 445.32 318.81C445.32 319.583 445.947 320.21 446.72 320.21Z" fill="white"/>
<path d="M460.68 318.81C460.68 319.58 460.05 320.21 459.28 320.21C458.51 320.21 457.88 319.59 457.88 318.81C457.88 318.03 458.51 317.41 459.28 317.41C460.06 317.41 460.68 318.04 460.68 318.81Z" fill="white"/>
<path d="M471.85 320.21C472.623 320.21 473.25 319.583 473.25 318.81C473.25 318.037 472.623 317.41 471.85 317.41C471.077 317.41 470.45 318.037 470.45 318.81C470.45 319.583 471.077 320.21 471.85 320.21Z" fill="white"/>
<path d="M347.61 329.97C347.61 330.74 346.98 331.37 346.21 331.37C345.44 331.37 344.81 330.74 344.81 329.97C344.81 329.2 345.43 328.57 346.21 328.57C346.98 328.58 347.61 329.2 347.61 329.97Z" fill="white"/>
<path d="M360.17 329.97C360.17 330.74 359.55 331.37 358.77 331.37C358 331.37 357.37 330.74 357.37 329.97C357.37 329.2 358 328.57 358.77 328.57C359.55 328.58 360.17 329.2 360.17 329.97Z" fill="white"/>
<path d="M372.73 329.97C372.73 330.74 372.1 331.37 371.33 331.37C370.56 331.37 369.93 330.74 369.93 329.97C369.93 329.2 370.55 328.57 371.33 328.57C372.11 328.58 372.73 329.2 372.73 329.97Z" fill="white"/>
<path d="M385.3 329.97C385.3 330.74 384.68 331.37 383.9 331.37C383.13 331.37 382.5 330.74 382.5 329.97C382.5 329.2 383.13 328.57 383.9 328.57C384.67 328.58 385.3 329.2 385.3 329.97Z" fill="white"/>
<path d="M397.86 329.97C397.86 330.74 397.23 331.37 396.46 331.37C395.69 331.37 395.06 330.74 395.06 329.97C395.06 329.2 395.68 328.57 396.46 328.57C397.24 328.58 397.86 329.2 397.86 329.97Z" fill="white"/>
<path d="M410.43 329.97C410.43 330.74 409.8 331.37 409.03 331.37C408.26 331.37 407.63 330.74 407.63 329.97C407.63 329.2 408.26 328.57 409.03 328.57C409.8 328.58 410.43 329.2 410.43 329.97Z" fill="white"/>
<path d="M422.99 329.97C422.99 330.74 422.36 331.37 421.59 331.37C420.82 331.37 420.19 330.74 420.19 329.97C420.19 329.2 420.81 328.57 421.59 328.57C422.36 328.58 422.99 329.2 422.99 329.97Z" fill="white"/>
<path d="M435.55 329.97C435.55 330.74 434.92 331.37 434.15 331.37C433.38 331.37 432.75 330.74 432.75 329.97C432.75 329.2 433.38 328.57 434.15 328.57C434.93 328.58 435.55 329.2 435.55 329.97Z" fill="white"/>
<path d="M448.12 329.97C448.12 330.74 447.49 331.37 446.72 331.37C445.95 331.37 445.32 330.74 445.32 329.97C445.32 329.2 445.94 328.57 446.72 328.57C447.49 328.58 448.12 329.2 448.12 329.97Z" fill="white"/>
<path d="M460.68 329.97C460.68 330.74 460.05 331.37 459.28 331.37C458.51 331.37 457.88 330.74 457.88 329.97C457.88 329.2 458.51 328.57 459.28 328.57C460.06 328.58 460.68 329.2 460.68 329.97Z" fill="white"/>
<path d="M473.25 329.97C473.25 330.74 472.63 331.37 471.85 331.37C471.07 331.37 470.45 330.74 470.45 329.97C470.45 329.2 471.07 328.57 471.85 328.57C472.63 328.57 473.25 329.2 473.25 329.97Z" fill="white"/>
<path d="M346.21 342.54C346.983 342.54 347.61 341.913 347.61 341.14C347.61 340.367 346.983 339.74 346.21 339.74C345.437 339.74 344.81 340.367 344.81 341.14C344.81 341.913 345.437 342.54 346.21 342.54Z" fill="white"/>
<path d="M358.77 342.54C359.543 342.54 360.17 341.913 360.17 341.14C360.17 340.367 359.543 339.74 358.77 339.74C357.997 339.74 357.37 340.367 357.37 341.14C357.37 341.913 357.997 342.54 358.77 342.54Z" fill="white"/>
<path d="M371.34 342.54C372.113 342.54 372.74 341.913 372.74 341.14C372.74 340.367 372.113 339.74 371.34 339.74C370.567 339.74 369.94 340.367 369.94 341.14C369.94 341.913 370.567 342.54 371.34 342.54Z" fill="white"/>
<path d="M383.9 342.54C384.673 342.54 385.3 341.913 385.3 341.14C385.3 340.367 384.673 339.74 383.9 339.74C383.127 339.74 382.5 340.367 382.5 341.14C382.5 341.913 383.127 342.54 383.9 342.54Z" fill="white"/>
<path d="M396.47 342.54C397.243 342.54 397.87 341.913 397.87 341.14C397.87 340.367 397.243 339.74 396.47 339.74C395.697 339.74 395.07 340.367 395.07 341.14C395.07 341.913 395.697 342.54 396.47 342.54Z" fill="white"/>
<path d="M410.43 341.14C410.43 341.91 409.8 342.54 409.03 342.54C408.26 342.54 407.63 341.91 407.63 341.14C407.63 340.37 408.26 339.74 409.03 339.74C409.8 339.75 410.43 340.37 410.43 341.14Z" fill="white"/>
<path d="M421.59 342.54C422.363 342.54 422.99 341.913 422.99 341.14C422.99 340.367 422.363 339.74 421.59 339.74C420.817 339.74 420.19 340.367 420.19 341.14C420.19 341.913 420.817 342.54 421.59 342.54Z" fill="white"/>
<path d="M435.55 341.14C435.55 341.91 434.92 342.54 434.15 342.54C433.38 342.54 432.75 341.91 432.75 341.14C432.75 340.37 433.38 339.74 434.15 339.74C434.93 339.75 435.55 340.37 435.55 341.14Z" fill="white"/>
<path d="M446.72 342.54C447.493 342.54 448.12 341.913 448.12 341.14C448.12 340.367 447.493 339.74 446.72 339.74C445.947 339.74 445.32 340.367 445.32 341.14C445.32 341.913 445.947 342.54 446.72 342.54Z" fill="white"/>
<path d="M460.68 341.14C460.68 341.91 460.05 342.54 459.28 342.54C458.51 342.54 457.88 341.91 457.88 341.14C457.88 340.37 458.51 339.74 459.28 339.74C460.06 339.75 460.68 340.37 460.68 341.14Z" fill="white"/>
<path d="M471.85 342.54C472.623 342.54 473.25 341.913 473.25 341.14C473.25 340.367 472.623 339.74 471.85 339.74C471.077 339.74 470.45 340.367 470.45 341.14C470.45 341.913 471.077 342.54 471.85 342.54Z" fill="white"/>
<path d="M888.03 311.27C865.54 341.82 831.02 362.63 787.93 373.53C769.75 378.13 750.79 381.21 734.44 390.27C718.09 399.33 704.58 416.34 706.63 434.47C709.15 456.73 733.31 470.62 756.03 474.16C803.82 481.6 857.63 474.1 890.73 435.56C916.5 405.55 926.08 363.45 954.75 336.2C982.51 309.82 1024.61 300.98 1048.7 271.21C1061.39 255.52 1067.65 235.52 1070.75 215.58C1075.14 187.34 1073.46 157.37 1060.59 131.85C1047.72 106.34 1022.32 86.1599 993.79 84.5499C918.99 80.3399 919.54 175.34 916.89 225.61C915.11 259.65 904.99 288.23 888.03 311.27Z" fill="#69779B"/>
<path d="M516.23 504.7C517.401 504.7 518.35 503.751 518.35 502.58C518.35 501.409 517.401 500.46 516.23 500.46C515.059 500.46 514.11 501.409 514.11 502.58C514.11 503.751 515.059 504.7 516.23 504.7Z" fill="white"/>
<path d="M535.33 504.7C536.501 504.7 537.45 503.751 537.45 502.58C537.45 501.409 536.501 500.46 535.33 500.46C534.159 500.46 533.21 501.409 533.21 502.58C533.21 503.751 534.159 504.7 535.33 504.7Z" fill="white"/>
<path d="M554.43 504.7C555.601 504.7 556.55 503.751 556.55 502.58C556.55 501.409 555.601 500.46 554.43 500.46C553.259 500.46 552.31 501.409 552.31 502.58C552.31 503.751 553.259 504.7 554.43 504.7Z" fill="white"/>
<path d="M573.53 504.7C574.701 504.7 575.65 503.751 575.65 502.58C575.65 501.409 574.701 500.46 573.53 500.46C572.359 500.46 571.41 501.409 571.41 502.58C571.41 503.751 572.359 504.7 573.53 504.7Z" fill="white"/>
<path d="M594.75 502.58C594.75 503.75 593.8 504.7 592.63 504.7C591.46 504.7 590.51 503.75 590.51 502.58C590.51 501.41 591.46 500.46 592.63 500.46C593.8 500.46 594.75 501.41 594.75 502.58Z" fill="white"/>
<path d="M611.72 504.7C612.891 504.7 613.84 503.751 613.84 502.58C613.84 501.409 612.891 500.46 611.72 500.46C610.549 500.46 609.6 501.409 609.6 502.58C609.6 503.751 610.549 504.7 611.72 504.7Z" fill="white"/>
<path d="M630.82 504.7C631.991 504.7 632.94 503.751 632.94 502.58C632.94 501.409 631.991 500.46 630.82 500.46C629.649 500.46 628.7 501.409 628.7 502.58C628.7 503.751 629.649 504.7 630.82 504.7Z" fill="white"/>
<path d="M649.92 504.7C651.091 504.7 652.04 503.751 652.04 502.58C652.04 501.409 651.091 500.46 649.92 500.46C648.749 500.46 647.8 501.409 647.8 502.58C647.8 503.751 648.749 504.7 649.92 504.7Z" fill="white"/>
<path d="M669.02 504.7C670.191 504.7 671.14 503.751 671.14 502.58C671.14 501.409 670.191 500.46 669.02 500.46C667.849 500.46 666.9 501.409 666.9 502.58C666.9 503.751 667.849 504.7 669.02 504.7Z" fill="white"/>
<path d="M688.12 504.7C689.291 504.7 690.24 503.751 690.24 502.58C690.24 501.409 689.291 500.46 688.12 500.46C686.949 500.46 686 501.409 686 502.58C686 503.751 686.949 504.7 688.12 504.7Z" fill="white"/>
<path d="M707.22 504.7C708.391 504.7 709.34 503.751 709.34 502.58C709.34 501.409 708.391 500.46 707.22 500.46C706.049 500.46 705.1 501.409 705.1 502.58C705.1 503.751 706.049 504.7 707.22 504.7Z" fill="white"/>
<path d="M516.23 521.68C517.401 521.68 518.35 520.731 518.35 519.56C518.35 518.389 517.401 517.44 516.23 517.44C515.059 517.44 514.11 518.389 514.11 519.56C514.11 520.731 515.059 521.68 516.23 521.68Z" fill="white"/>
<path d="M535.33 521.68C536.501 521.68 537.45 520.731 537.45 519.56C537.45 518.389 536.501 517.44 535.33 517.44C534.159 517.44 533.21 518.389 533.21 519.56C533.21 520.731 534.159 521.68 535.33 521.68Z" fill="white"/>
<path d="M554.43 521.68C555.601 521.68 556.55 520.731 556.55 519.56C556.55 518.389 555.601 517.44 554.43 517.44C553.259 517.44 552.31 518.389 552.31 519.56C552.31 520.731 553.259 521.68 554.43 521.68Z" fill="white"/>
<path d="M573.53 521.68C574.701 521.68 575.65 520.731 575.65 519.56C575.65 518.389 574.701 517.44 573.53 517.44C572.359 517.44 571.41 518.389 571.41 519.56C571.41 520.731 572.359 521.68 573.53 521.68Z" fill="white"/>
<path d="M594.75 519.56C594.75 520.73 593.8 521.68 592.63 521.68C591.46 521.68 590.51 520.73 590.51 519.56C590.51 518.39 591.46 517.44 592.63 517.44C593.8 517.44 594.75 518.39 594.75 519.56Z" fill="white"/>
<path d="M611.72 521.68C612.891 521.68 613.84 520.731 613.84 519.56C613.84 518.389 612.891 517.44 611.72 517.44C610.549 517.44 609.6 518.389 609.6 519.56C609.6 520.731 610.549 521.68 611.72 521.68Z" fill="white"/>
<path d="M630.82 521.68C631.991 521.68 632.94 520.731 632.94 519.56C632.94 518.389 631.991 517.44 630.82 517.44C629.649 517.44 628.7 518.389 628.7 519.56C628.7 520.731 629.649 521.68 630.82 521.68Z" fill="white"/>
<path d="M649.92 521.68C651.091 521.68 652.04 520.731 652.04 519.56C652.04 518.389 651.091 517.44 649.92 517.44C648.749 517.44 647.8 518.389 647.8 519.56C647.8 520.731 648.749 521.68 649.92 521.68Z" fill="white"/>
<path d="M669.02 521.68C670.191 521.68 671.14 520.731 671.14 519.56C671.14 518.389 670.191 517.44 669.02 517.44C667.849 517.44 666.9 518.389 666.9 519.56C666.9 520.731 667.849 521.68 669.02 521.68Z" fill="white"/>
<path d="M688.12 521.68C689.291 521.68 690.24 520.731 690.24 519.56C690.24 518.389 689.291 517.44 688.12 517.44C686.949 517.44 686 518.389 686 519.56C686 520.731 686.949 521.68 688.12 521.68Z" fill="white"/>
<path d="M707.22 521.68C708.391 521.68 709.34 520.731 709.34 519.56C709.34 518.389 708.391 517.44 707.22 517.44C706.049 517.44 705.1 518.389 705.1 519.56C705.1 520.731 706.049 521.68 707.22 521.68Z" fill="white"/>
<path d="M516.23 538.65C517.401 538.65 518.35 537.701 518.35 536.53C518.35 535.359 517.401 534.41 516.23 534.41C515.059 534.41 514.11 535.359 514.11 536.53C514.11 537.701 515.059 538.65 516.23 538.65Z" fill="white"/>
<path d="M535.33 538.65C536.501 538.65 537.45 537.701 537.45 536.53C537.45 535.359 536.501 534.41 535.33 534.41C534.159 534.41 533.21 535.359 533.21 536.53C533.21 537.701 534.159 538.65 535.33 538.65Z" fill="white"/>
<path d="M554.43 538.65C555.601 538.65 556.55 537.701 556.55 536.53C556.55 535.359 555.601 534.41 554.43 534.41C553.259 534.41 552.31 535.359 552.31 536.53C552.31 537.701 553.259 538.65 554.43 538.65Z" fill="white"/>
<path d="M573.53 538.65C574.701 538.65 575.65 537.701 575.65 536.53C575.65 535.359 574.701 534.41 573.53 534.41C572.359 534.41 571.41 535.359 571.41 536.53C571.41 537.701 572.359 538.65 573.53 538.65Z" fill="white"/>
<path d="M594.75 536.53C594.75 537.7 593.8 538.65 592.63 538.65C591.46 538.65 590.51 537.7 590.51 536.53C590.51 535.36 591.46 534.41 592.63 534.41C593.8 534.41 594.75 535.36 594.75 536.53Z" fill="white"/>
<path d="M611.72 538.65C612.891 538.65 613.84 537.701 613.84 536.53C613.84 535.359 612.891 534.41 611.72 534.41C610.549 534.41 609.6 535.359 609.6 536.53C609.6 537.701 610.549 538.65 611.72 538.65Z" fill="white"/>
<path d="M630.82 538.65C631.991 538.65 632.94 537.701 632.94 536.53C632.94 535.359 631.991 534.41 630.82 534.41C629.649 534.41 628.7 535.359 628.7 536.53C628.7 537.701 629.649 538.65 630.82 538.65Z" fill="white"/>
<path d="M649.92 538.65C651.091 538.65 652.04 537.701 652.04 536.53C652.04 535.359 651.091 534.41 649.92 534.41C648.749 534.41 647.8 535.359 647.8 536.53C647.8 537.701 648.749 538.65 649.92 538.65Z" fill="white"/>
<path d="M669.02 538.65C670.191 538.65 671.14 537.701 671.14 536.53C671.14 535.359 670.191 534.41 669.02 534.41C667.849 534.41 666.9 535.359 666.9 536.53C666.9 537.701 667.849 538.65 669.02 538.65Z" fill="white"/>
<path d="M688.12 538.65C689.291 538.65 690.24 537.701 690.24 536.53C690.24 535.359 689.291 534.41 688.12 534.41C686.949 534.41 686 535.359 686 536.53C686 537.701 686.949 538.65 688.12 538.65Z" fill="white"/>
<path d="M707.22 538.65C708.391 538.65 709.34 537.701 709.34 536.53C709.34 535.359 708.391 534.41 707.22 534.41C706.049 534.41 705.1 535.359 705.1 536.53C705.1 537.701 706.049 538.65 707.22 538.65Z" fill="white"/>
<path d="M518.35 553.51C518.35 554.68 517.4 555.63 516.23 555.63C515.06 555.63 514.11 554.68 514.11 553.51C514.11 552.34 515.06 551.39 516.23 551.39C517.4 551.39 518.35 552.34 518.35 553.51Z" fill="white"/>
<path d="M537.45 553.51C537.45 554.68 536.5 555.63 535.33 555.63C534.16 555.63 533.21 554.68 533.21 553.51C533.21 552.34 534.16 551.39 535.33 551.39C536.5 551.39 537.45 552.34 537.45 553.51Z" fill="white"/>
<path d="M556.55 553.51C556.55 554.68 555.6 555.63 554.43 555.63C553.26 555.63 552.31 554.68 552.31 553.51C552.31 552.34 553.26 551.39 554.43 551.39C555.6 551.39 556.55 552.34 556.55 553.51Z" fill="white"/>
<path d="M575.65 553.51C575.65 554.68 574.7 555.63 573.53 555.63C572.36 555.63 571.41 554.68 571.41 553.51C571.41 552.34 572.36 551.39 573.53 551.39C574.7 551.39 575.65 552.34 575.65 553.51Z" fill="white"/>
<path d="M594.75 553.51C594.75 554.68 593.8 555.63 592.63 555.63C591.46 555.63 590.51 554.68 590.51 553.51C590.51 552.34 591.46 551.39 592.63 551.39C593.8 551.39 594.75 552.34 594.75 553.51Z" fill="white"/>
<path d="M613.85 553.51C613.85 554.68 612.9 555.63 611.73 555.63C610.56 555.63 609.61 554.68 609.61 553.51C609.61 552.34 610.56 551.39 611.73 551.39C612.89 551.39 613.85 552.34 613.85 553.51Z" fill="white"/>
<path d="M632.94 553.51C632.94 554.68 631.99 555.63 630.82 555.63C629.65 555.63 628.7 554.68 628.7 553.51C628.7 552.34 629.65 551.39 630.82 551.39C631.99 551.39 632.94 552.34 632.94 553.51Z" fill="white"/>
<path d="M652.04 553.51C652.04 554.68 651.09 555.63 649.92 555.63C648.75 555.63 647.8 554.68 647.8 553.51C647.8 552.34 648.75 551.39 649.92 551.39C651.09 551.39 652.04 552.34 652.04 553.51Z" fill="white"/>
<path d="M671.14 553.51C671.14 554.68 670.19 555.63 669.02 555.63C667.85 555.63 666.9 554.68 666.9 553.51C666.9 552.34 667.85 551.39 669.02 551.39C670.19 551.39 671.14 552.34 671.14 553.51Z" fill="white"/>
<path d="M690.24 553.51C690.24 554.68 689.29 555.63 688.12 555.63C686.95 555.63 686 554.68 686 553.51C686 552.34 686.95 551.39 688.12 551.39C689.29 551.39 690.24 552.34 690.24 553.51Z" fill="white"/>
<path d="M709.34 553.51C709.34 554.68 708.39 555.63 707.22 555.63C706.05 555.63 705.1 554.68 705.1 553.51C705.1 552.34 706.05 551.39 707.22 551.39C708.39 551.39 709.34 552.34 709.34 553.51Z" fill="white"/>
<path d="M518.35 570.49C518.35 571.66 517.4 572.61 516.23 572.61C515.06 572.61 514.11 571.66 514.11 570.49C514.11 569.32 515.06 568.37 516.23 568.37C517.4 568.36 518.35 569.31 518.35 570.49Z" fill="white"/>
<path d="M537.45 570.49C537.45 571.66 536.5 572.61 535.33 572.61C534.16 572.61 533.21 571.66 533.21 570.49C533.21 569.32 534.16 568.37 535.33 568.37C536.5 568.36 537.45 569.31 537.45 570.49Z" fill="white"/>
<path d="M556.55 570.49C556.55 571.66 555.6 572.61 554.43 572.61C553.26 572.61 552.31 571.66 552.31 570.49C552.31 569.32 553.26 568.37 554.43 568.37C555.6 568.36 556.55 569.31 556.55 570.49Z" fill="white"/>
<path d="M575.65 570.49C575.65 571.66 574.7 572.61 573.53 572.61C572.36 572.61 571.41 571.66 571.41 570.49C571.41 569.32 572.36 568.37 573.53 568.37C574.7 568.36 575.65 569.31 575.65 570.49Z" fill="white"/>
<path d="M594.75 570.49C594.75 571.66 593.8 572.61 592.63 572.61C591.46 572.61 590.51 571.66 590.51 570.49C590.51 569.32 591.46 568.37 592.63 568.37C593.8 568.36 594.75 569.31 594.75 570.49Z" fill="white"/>
<path d="M613.85 570.49C613.85 571.66 612.9 572.61 611.73 572.61C610.56 572.61 609.61 571.66 609.61 570.49C609.61 569.32 610.56 568.37 611.73 568.37C612.89 568.36 613.85 569.31 613.85 570.49Z" fill="white"/>
<path d="M632.94 570.49C632.94 571.66 631.99 572.61 630.82 572.61C629.65 572.61 628.7 571.66 628.7 570.49C628.7 569.32 629.65 568.37 630.82 568.37C631.99 568.36 632.94 569.31 632.94 570.49Z" fill="white"/>
<path d="M652.04 570.49C652.04 571.66 651.09 572.61 649.92 572.61C648.75 572.61 647.8 571.66 647.8 570.49C647.8 569.32 648.75 568.37 649.92 568.37C651.09 568.37 652.04 569.31 652.04 570.49Z" fill="white"/>
<path d="M671.14 570.49C671.14 571.66 670.19 572.61 669.02 572.61C667.85 572.61 666.9 571.66 666.9 570.49C666.9 569.32 667.85 568.37 669.02 568.37C670.19 568.36 671.14 569.31 671.14 570.49Z" fill="white"/>
<path d="M690.24 570.49C690.24 571.66 689.29 572.61 688.12 572.61C686.95 572.61 686 571.66 686 570.49C686 569.32 686.95 568.37 688.12 568.37C689.29 568.36 690.24 569.31 690.24 570.49Z" fill="white"/>
<path d="M709.34 570.49C709.34 571.66 708.39 572.61 707.22 572.61C706.05 572.61 705.1 571.66 705.1 570.49C705.1 569.32 706.05 568.37 707.22 568.37C708.39 568.36 709.34 569.31 709.34 570.49Z" fill="white"/>
<path d="M516.23 589.58C517.401 589.58 518.35 588.631 518.35 587.46C518.35 586.289 517.401 585.34 516.23 585.34C515.059 585.34 514.11 586.289 514.11 587.46C514.11 588.631 515.059 589.58 516.23 589.58Z" fill="white"/>
<path d="M535.33 589.58C536.501 589.58 537.45 588.631 537.45 587.46C537.45 586.289 536.501 585.34 535.33 585.34C534.159 585.34 533.21 586.289 533.21 587.46C533.21 588.631 534.159 589.58 535.33 589.58Z" fill="white"/>
<path d="M554.43 589.58C555.601 589.58 556.55 588.631 556.55 587.46C556.55 586.289 555.601 585.34 554.43 585.34C553.259 585.34 552.31 586.289 552.31 587.46C552.31 588.631 553.259 589.58 554.43 589.58Z" fill="white"/>
<path d="M573.53 589.58C574.701 589.58 575.65 588.631 575.65 587.46C575.65 586.289 574.701 585.34 573.53 585.34C572.359 585.34 571.41 586.289 571.41 587.46C571.41 588.631 572.359 589.58 573.53 589.58Z" fill="white"/>
<path d="M594.75 587.46C594.75 588.63 593.8 589.58 592.63 589.58C591.46 589.58 590.51 588.63 590.51 587.46C590.51 586.29 591.46 585.34 592.63 585.34C593.8 585.34 594.75 586.29 594.75 587.46Z" fill="white"/>
<path d="M611.72 589.58C612.891 589.58 613.84 588.631 613.84 587.46C613.84 586.289 612.891 585.34 611.72 585.34C610.549 585.34 609.6 586.289 609.6 587.46C609.6 588.631 610.549 589.58 611.72 589.58Z" fill="white"/>
<path d="M630.82 589.58C631.991 589.58 632.94 588.631 632.94 587.46C632.94 586.289 631.991 585.34 630.82 585.34C629.649 585.34 628.7 586.289 628.7 587.46C628.7 588.631 629.649 589.58 630.82 589.58Z" fill="white"/>
<path d="M649.92 589.58C651.091 589.58 652.04 588.631 652.04 587.46C652.04 586.289 651.091 585.34 649.92 585.34C648.749 585.34 647.8 586.289 647.8 587.46C647.8 588.631 648.749 589.58 649.92 589.58Z" fill="white"/>
<path d="M669.02 589.58C670.191 589.58 671.14 588.631 671.14 587.46C671.14 586.289 670.191 585.34 669.02 585.34C667.849 585.34 666.9 586.289 666.9 587.46C666.9 588.631 667.849 589.58 669.02 589.58Z" fill="white"/>
<path d="M688.12 589.58C689.291 589.58 690.24 588.631 690.24 587.46C690.24 586.289 689.291 585.34 688.12 585.34C686.949 585.34 686 586.289 686 587.46C686 588.631 686.949 589.58 688.12 589.58Z" fill="white"/>
<path d="M707.22 589.58C708.391 589.58 709.34 588.631 709.34 587.46C709.34 586.289 708.391 585.34 707.22 585.34C706.049 585.34 705.1 586.289 705.1 587.46C705.1 588.631 706.049 589.58 707.22 589.58Z" fill="white"/>
<path d="M516.23 606.56C517.401 606.56 518.35 605.611 518.35 604.44C518.35 603.269 517.401 602.32 516.23 602.32C515.059 602.32 514.11 603.269 514.11 604.44C514.11 605.611 515.059 606.56 516.23 606.56Z" fill="white"/>
<path d="M535.33 606.56C536.501 606.56 537.45 605.611 537.45 604.44C537.45 603.269 536.501 602.32 535.33 602.32C534.159 602.32 533.21 603.269 533.21 604.44C533.21 605.611 534.159 606.56 535.33 606.56Z" fill="white"/>
<path d="M554.43 606.56C555.601 606.56 556.55 605.611 556.55 604.44C556.55 603.269 555.601 602.32 554.43 602.32C553.259 602.32 552.31 603.269 552.31 604.44C552.31 605.611 553.259 606.56 554.43 606.56Z" fill="white"/>
<path d="M573.53 606.56C574.701 606.56 575.65 605.611 575.65 604.44C575.65 603.269 574.701 602.32 573.53 602.32C572.359 602.32 571.41 603.269 571.41 604.44C571.41 605.611 572.359 606.56 573.53 606.56Z" fill="white"/>
<path d="M594.75 604.44C594.75 605.61 593.8 606.56 592.63 606.56C591.46 606.56 590.51 605.61 590.51 604.44C590.51 603.27 591.46 602.32 592.63 602.32C593.8 602.32 594.75 603.27 594.75 604.44Z" fill="white"/>
<path d="M611.72 606.56C612.891 606.56 613.84 605.611 613.84 604.44C613.84 603.269 612.891 602.32 611.72 602.32C610.549 602.32 609.6 603.269 609.6 604.44C609.6 605.611 610.549 606.56 611.72 606.56Z" fill="white"/>
<path d="M630.82 606.56C631.991 606.56 632.94 605.611 632.94 604.44C632.94 603.269 631.991 602.32 630.82 602.32C629.649 602.32 628.7 603.269 628.7 604.44C628.7 605.611 629.649 606.56 630.82 606.56Z" fill="white"/>
<path d="M649.92 606.56C651.091 606.56 652.04 605.611 652.04 604.44C652.04 603.269 651.091 602.32 649.92 602.32C648.749 602.32 647.8 603.269 647.8 604.44C647.8 605.611 648.749 606.56 649.92 606.56Z" fill="white"/>
<path d="M669.02 606.56C670.191 606.56 671.14 605.611 671.14 604.44C671.14 603.269 670.191 602.32 669.02 602.32C667.849 602.32 666.9 603.269 666.9 604.44C666.9 605.611 667.849 606.56 669.02 606.56Z" fill="white"/>
<path d="M688.12 606.56C689.291 606.56 690.24 605.611 690.24 604.44C690.24 603.269 689.291 602.32 688.12 602.32C686.949 602.32 686 603.269 686 604.44C686 605.611 686.949 606.56 688.12 606.56Z" fill="white"/>
<path d="M707.22 606.56C708.391 606.56 709.34 605.611 709.34 604.44C709.34 603.269 708.391 602.32 707.22 602.32C706.049 602.32 705.1 603.269 705.1 604.44C705.1 605.611 706.049 606.56 707.22 606.56Z" fill="white"/>
<path d="M518.35 621.42C518.35 622.59 517.4 623.54 516.23 623.54C515.06 623.54 514.11 622.59 514.11 621.42C514.11 620.25 515.06 619.3 516.23 619.3C517.4 619.29 518.35 620.24 518.35 621.42Z" fill="white"/>
<path d="M537.45 621.42C537.45 622.59 536.5 623.54 535.33 623.54C534.16 623.54 533.21 622.59 533.21 621.42C533.21 620.25 534.16 619.3 535.33 619.3C536.5 619.29 537.45 620.24 537.45 621.42Z" fill="white"/>
<path d="M556.55 621.42C556.55 622.59 555.6 623.54 554.43 623.54C553.26 623.54 552.31 622.59 552.31 621.42C552.31 620.25 553.26 619.3 554.43 619.3C555.6 619.29 556.55 620.24 556.55 621.42Z" fill="white"/>
<path d="M575.65 621.42C575.65 622.59 574.7 623.54 573.53 623.54C572.36 623.54 571.41 622.59 571.41 621.42C571.41 620.25 572.36 619.3 573.53 619.3C574.7 619.29 575.65 620.24 575.65 621.42Z" fill="white"/>
<path d="M594.75 621.42C594.75 622.59 593.8 623.54 592.63 623.54C591.46 623.54 590.51 622.59 590.51 621.42C590.51 620.25 591.46 619.3 592.63 619.3C593.8 619.29 594.75 620.24 594.75 621.42Z" fill="white"/>
<path d="M613.85 621.42C613.85 622.59 612.9 623.54 611.73 623.54C610.56 623.54 609.61 622.59 609.61 621.42C609.61 620.25 610.56 619.3 611.73 619.3C612.89 619.29 613.85 620.24 613.85 621.42Z" fill="white"/>
<path d="M632.94 621.42C632.94 622.59 631.99 623.54 630.82 623.54C629.65 623.54 628.7 622.59 628.7 621.42C628.7 620.25 629.65 619.3 630.82 619.3C631.99 619.29 632.94 620.24 632.94 621.42Z" fill="white"/>
<path d="M652.04 621.42C652.04 622.59 651.09 623.54 649.92 623.54C648.75 623.54 647.8 622.59 647.8 621.42C647.8 620.25 648.75 619.3 649.92 619.3C651.09 619.3 652.04 620.24 652.04 621.42Z" fill="white"/>
<path d="M671.14 621.42C671.14 622.59 670.19 623.54 669.02 623.54C667.85 623.54 666.9 622.59 666.9 621.42C666.9 620.25 667.85 619.3 669.02 619.3C670.19 619.29 671.14 620.24 671.14 621.42Z" fill="white"/>
<path d="M690.24 621.42C690.24 622.59 689.29 623.54 688.12 623.54C686.95 623.54 686 622.59 686 621.42C686 620.25 686.95 619.3 688.12 619.3C689.29 619.29 690.24 620.24 690.24 621.42Z" fill="white"/>
<path d="M709.34 621.42C709.34 622.59 708.39 623.54 707.22 623.54C706.05 623.54 705.1 622.59 705.1 621.42C705.1 620.25 706.05 619.3 707.22 619.3C708.39 619.29 709.34 620.24 709.34 621.42Z" fill="white"/>
<path d="M518.35 638.39C518.35 639.56 517.4 640.51 516.23 640.51C515.06 640.51 514.11 639.56 514.11 638.39C514.11 637.22 515.06 636.27 516.23 636.27C517.4 636.27 518.35 637.22 518.35 638.39Z" fill="white"/>
<path d="M537.45 638.39C537.45 639.56 536.5 640.51 535.33 640.51C534.16 640.51 533.21 639.56 533.21 638.39C533.21 637.22 534.16 636.27 535.33 636.27C536.5 636.27 537.45 637.22 537.45 638.39Z" fill="white"/>
<path d="M556.55 638.39C556.55 639.56 555.6 640.51 554.43 640.51C553.26 640.51 552.31 639.56 552.31 638.39C552.31 637.22 553.26 636.27 554.43 636.27C555.6 636.27 556.55 637.22 556.55 638.39Z" fill="white"/>
<path d="M575.65 638.39C575.65 639.56 574.7 640.51 573.53 640.51C572.36 640.51 571.41 639.56 571.41 638.39C571.41 637.22 572.36 636.27 573.53 636.27C574.7 636.27 575.65 637.22 575.65 638.39Z" fill="white"/>
<path d="M594.75 638.39C594.75 639.56 593.8 640.51 592.63 640.51C591.46 640.51 590.51 639.56 590.51 638.39C590.51 637.22 591.46 636.27 592.63 636.27C593.8 636.27 594.75 637.22 594.75 638.39Z" fill="white"/>
<path d="M613.85 638.39C613.85 639.56 612.9 640.51 611.73 640.51C610.56 640.51 609.61 639.56 609.61 638.39C609.61 637.22 610.56 636.27 611.73 636.27C612.89 636.27 613.85 637.22 613.85 638.39Z" fill="white"/>
<path d="M632.94 638.39C632.94 639.56 631.99 640.51 630.82 640.51C629.65 640.51 628.7 639.56 628.7 638.39C628.7 637.22 629.65 636.27 630.82 636.27C631.99 636.27 632.94 637.22 632.94 638.39Z" fill="white"/>
<path d="M652.04 638.39C652.04 639.56 651.09 640.51 649.92 640.51C648.75 640.51 647.8 639.56 647.8 638.39C647.8 637.22 648.75 636.27 649.92 636.27C651.09 636.27 652.04 637.22 652.04 638.39Z" fill="white"/>
<path d="M671.14 638.39C671.14 639.56 670.19 640.51 669.02 640.51C667.85 640.51 666.9 639.56 666.9 638.39C666.9 637.22 667.85 636.27 669.02 636.27C670.19 636.27 671.14 637.22 671.14 638.39Z" fill="white"/>
<path d="M690.24 638.39C690.24 639.56 689.29 640.51 688.12 640.51C686.95 640.51 686 639.56 686 638.39C686 637.22 686.95 636.27 688.12 636.27C689.29 636.27 690.24 637.22 690.24 638.39Z" fill="white"/>
<path d="M709.34 638.39C709.34 639.56 708.39 640.51 707.22 640.51C706.05 640.51 705.1 639.56 705.1 638.39C705.1 637.22 706.05 636.27 707.22 636.27C708.39 636.27 709.34 637.22 709.34 638.39Z" fill="white"/>
<path d="M516.23 657.49C517.401 657.49 518.35 656.541 518.35 655.37C518.35 654.199 517.401 653.25 516.23 653.25C515.059 653.25 514.11 654.199 514.11 655.37C514.11 656.541 515.059 657.49 516.23 657.49Z" fill="white"/>
<path d="M535.33 657.49C536.501 657.49 537.45 656.541 537.45 655.37C537.45 654.199 536.501 653.25 535.33 653.25C534.159 653.25 533.21 654.199 533.21 655.37C533.21 656.541 534.159 657.49 535.33 657.49Z" fill="white"/>
<path d="M554.43 657.49C555.601 657.49 556.55 656.541 556.55 655.37C556.55 654.199 555.601 653.25 554.43 653.25C553.259 653.25 552.31 654.199 552.31 655.37C552.31 656.541 553.259 657.49 554.43 657.49Z" fill="white"/>
<path d="M573.53 657.49C574.701 657.49 575.65 656.541 575.65 655.37C575.65 654.199 574.701 653.25 573.53 653.25C572.359 653.25 571.41 654.199 571.41 655.37C571.41 656.541 572.359 657.49 573.53 657.49Z" fill="white"/>
<path d="M594.75 655.37C594.75 656.54 593.8 657.49 592.63 657.49C591.46 657.49 590.51 656.54 590.51 655.37C590.51 654.2 591.46 653.25 592.63 653.25C593.8 653.25 594.75 654.2 594.75 655.37Z" fill="white"/>
<path d="M611.72 657.49C612.891 657.49 613.84 656.541 613.84 655.37C613.84 654.199 612.891 653.25 611.72 653.25C610.549 653.25 609.6 654.199 609.6 655.37C609.6 656.541 610.549 657.49 611.72 657.49Z" fill="white"/>
<path d="M630.82 657.49C631.991 657.49 632.94 656.541 632.94 655.37C632.94 654.199 631.991 653.25 630.82 653.25C629.649 653.25 628.7 654.199 628.7 655.37C628.7 656.541 629.649 657.49 630.82 657.49Z" fill="white"/>
<path d="M649.92 657.49C651.091 657.49 652.04 656.541 652.04 655.37C652.04 654.199 651.091 653.25 649.92 653.25C648.749 653.25 647.8 654.199 647.8 655.37C647.8 656.541 648.749 657.49 649.92 657.49Z" fill="white"/>
<path d="M669.02 657.49C670.191 657.49 671.14 656.541 671.14 655.37C671.14 654.199 670.191 653.25 669.02 653.25C667.849 653.25 666.9 654.199 666.9 655.37C666.9 656.541 667.849 657.49 669.02 657.49Z" fill="white"/>
<path d="M688.12 657.49C689.291 657.49 690.24 656.541 690.24 655.37C690.24 654.199 689.291 653.25 688.12 653.25C686.949 653.25 686 654.199 686 655.37C686 656.541 686.949 657.49 688.12 657.49Z" fill="white"/>
<path d="M707.22 657.49C708.391 657.49 709.34 656.541 709.34 655.37C709.34 654.199 708.391 653.25 707.22 653.25C706.049 653.25 705.1 654.199 705.1 655.37C705.1 656.541 706.049 657.49 707.22 657.49Z" fill="white"/>
<path d="M516.23 674.47C517.401 674.47 518.35 673.521 518.35 672.35C518.35 671.179 517.401 670.23 516.23 670.23C515.059 670.23 514.11 671.179 514.11 672.35C514.11 673.521 515.059 674.47 516.23 674.47Z" fill="white"/>
<path d="M535.33 674.47C536.501 674.47 537.45 673.521 537.45 672.35C537.45 671.179 536.501 670.23 535.33 670.23C534.159 670.23 533.21 671.179 533.21 672.35C533.21 673.521 534.159 674.47 535.33 674.47Z" fill="white"/>
<path d="M554.43 674.47C555.601 674.47 556.55 673.521 556.55 672.35C556.55 671.179 555.601 670.23 554.43 670.23C553.259 670.23 552.31 671.179 552.31 672.35C552.31 673.521 553.259 674.47 554.43 674.47Z" fill="white"/>
<path d="M573.53 674.47C574.701 674.47 575.65 673.521 575.65 672.35C575.65 671.179 574.701 670.23 573.53 670.23C572.359 670.23 571.41 671.179 571.41 672.35C571.41 673.521 572.359 674.47 573.53 674.47Z" fill="white"/>
<path d="M594.75 672.35C594.75 673.52 593.8 674.47 592.63 674.47C591.46 674.47 590.51 673.52 590.51 672.35C590.51 671.18 591.46 670.23 592.63 670.23C593.8 670.22 594.75 671.17 594.75 672.35Z" fill="white"/>
<path d="M611.72 674.47C612.891 674.47 613.84 673.521 613.84 672.35C613.84 671.179 612.891 670.23 611.72 670.23C610.549 670.23 609.6 671.179 609.6 672.35C609.6 673.521 610.549 674.47 611.72 674.47Z" fill="white"/>
<path d="M630.82 674.47C631.991 674.47 632.94 673.521 632.94 672.35C632.94 671.179 631.991 670.23 630.82 670.23C629.649 670.23 628.7 671.179 628.7 672.35C628.7 673.521 629.649 674.47 630.82 674.47Z" fill="white"/>
<path d="M649.92 674.47C651.091 674.47 652.04 673.521 652.04 672.35C652.04 671.179 651.091 670.23 649.92 670.23C648.749 670.23 647.8 671.179 647.8 672.35C647.8 673.521 648.749 674.47 649.92 674.47Z" fill="white"/>
<path d="M669.02 674.47C670.191 674.47 671.14 673.521 671.14 672.35C671.14 671.179 670.191 670.23 669.02 670.23C667.849 670.23 666.9 671.179 666.9 672.35C666.9 673.521 667.849 674.47 669.02 674.47Z" fill="white"/>
<path d="M688.12 674.47C689.291 674.47 690.24 673.521 690.24 672.35C690.24 671.179 689.291 670.23 688.12 670.23C686.949 670.23 686 671.179 686 672.35C686 673.521 686.949 674.47 688.12 674.47Z" fill="white"/>
<path d="M707.22 674.47C708.391 674.47 709.34 673.521 709.34 672.35C709.34 671.179 708.391 670.23 707.22 670.23C706.049 670.23 705.1 671.179 705.1 672.35C705.1 673.521 706.049 674.47 707.22 674.47Z" fill="white"/>
<path d="M518.35 689.32C518.35 690.49 517.4 691.44 516.23 691.44C515.06 691.44 514.11 690.49 514.11 689.32C514.11 688.15 515.06 687.2 516.23 687.2C517.4 687.2 518.35 688.15 518.35 689.32Z" fill="white"/>
<path d="M537.45 689.32C537.45 690.49 536.5 691.44 535.33 691.44C534.16 691.44 533.21 690.49 533.21 689.32C533.21 688.15 534.16 687.2 535.33 687.2C536.5 687.2 537.45 688.15 537.45 689.32Z" fill="white"/>
<path d="M556.55 689.32C556.55 690.49 555.6 691.44 554.43 691.44C553.26 691.44 552.31 690.49 552.31 689.32C552.31 688.15 553.26 687.2 554.43 687.2C555.6 687.2 556.55 688.15 556.55 689.32Z" fill="white"/>
<path d="M575.65 689.32C575.65 690.49 574.7 691.44 573.53 691.44C572.36 691.44 571.41 690.49 571.41 689.32C571.41 688.15 572.36 687.2 573.53 687.2C574.7 687.2 575.65 688.15 575.65 689.32Z" fill="white"/>
<path d="M594.75 689.32C594.75 690.49 593.8 691.44 592.63 691.44C591.46 691.44 590.51 690.49 590.51 689.32C590.51 688.15 591.46 687.2 592.63 687.2C593.8 687.2 594.75 688.15 594.75 689.32Z" fill="white"/>
<path d="M613.85 689.32C613.85 690.49 612.9 691.44 611.73 691.44C610.56 691.44 609.61 690.49 609.61 689.32C609.61 688.15 610.56 687.2 611.73 687.2C612.89 687.2 613.85 688.15 613.85 689.32Z" fill="white"/>
<path d="M632.94 689.32C632.94 690.49 631.99 691.44 630.82 691.44C629.65 691.44 628.7 690.49 628.7 689.32C628.7 688.15 629.65 687.2 630.82 687.2C631.99 687.2 632.94 688.15 632.94 689.32Z" fill="white"/>
<path d="M652.04 689.32C652.04 690.49 651.09 691.44 649.92 691.44C648.75 691.44 647.8 690.49 647.8 689.32C647.8 688.15 648.75 687.2 649.92 687.2C651.09 687.2 652.04 688.15 652.04 689.32Z" fill="white"/>
<path d="M671.14 689.32C671.14 690.49 670.19 691.44 669.02 691.44C667.85 691.44 666.9 690.49 666.9 689.32C666.9 688.15 667.85 687.2 669.02 687.2C670.19 687.2 671.14 688.15 671.14 689.32Z" fill="white"/>
<path d="M690.24 689.32C690.24 690.49 689.29 691.44 688.12 691.44C686.95 691.44 686 690.49 686 689.32C686 688.15 686.95 687.2 688.12 687.2C689.29 687.2 690.24 688.15 690.24 689.32Z" fill="white"/>
<path d="M709.34 689.32C709.34 690.49 708.39 691.44 707.22 691.44C706.05 691.44 705.1 690.49 705.1 689.32C705.1 688.15 706.05 687.2 707.22 687.2C708.39 687.2 709.34 688.15 709.34 689.32Z" fill="white"/>
<path d="M106.46 133.01C87.2798 115.38 75.6398 90.2699 71.4098 60.0399C69.6198 47.2799 68.9398 34.1099 63.9698 22.2799C58.9998 10.4399 48.3998 -0.0500661 35.8698 -6.6124e-05C20.4898 0.0699339 9.19982 15.5199 5.08982 30.7699C-3.55018 62.8399 -2.44018 100.14 21.4098 125.6C39.9798 145.43 68.0098 155.1 84.4698 176.7C100.41 197.61 103.31 227.02 121.84 245.68C131.6 255.51 144.79 261.27 158.17 264.88C177.12 269.98 197.71 271.06 216.08 264.18C234.46 257.3 250.12 241.46 253.34 222.1C261.78 171.35 196.89 164.65 162.77 159.1C139.69 155.34 120.93 146.3 106.46 133.01Z" fill="#69779B"/>
<path d="M775.756 510.1C789.456 507.524 798.474 494.33 795.898 480.63C793.322 466.93 780.127 457.912 766.427 460.488C752.728 463.064 743.71 476.259 746.286 489.959C748.862 503.659 762.056 512.676 775.756 510.1Z" fill="#D7EAEA"/>
<path d="M262.8 361.45C264.3 375.31 254.28 387.76 240.42 389.26C226.56 390.76 214.11 380.74 212.61 366.88C211.11 353.02 221.13 340.57 234.99 339.07C248.85 337.57 261.3 347.59 262.8 361.45Z" fill="#69779B"/>
<path d="M731.661 303.075C744.068 277.041 733.021 245.878 706.987 233.471C680.953 221.064 649.79 232.111 637.383 258.145C624.976 284.179 636.023 315.342 662.057 327.749C688.091 340.156 719.254 329.109 731.661 303.075Z" fill="#E0C49C"/>
<path d="M553.236 474.707C573.629 454.314 573.629 421.25 553.236 400.857C532.843 380.464 499.779 380.464 479.386 400.857C458.993 421.25 458.993 454.314 479.386 474.707C499.779 495.1 532.843 495.1 553.236 474.707Z" fill="#D7EAEA"/>
<path d="M572.1 215.2C519.76 215.2 477.18 172.62 477.18 120.28C477.18 67.9399 519.76 25.3599 572.1 25.3599C624.44 25.3599 667.02 67.9399 667.02 120.28C667.01 172.62 624.43 215.2 572.1 215.2ZM572.1 28.5499C521.52 28.5499 480.37 69.6999 480.37 120.28C480.37 170.86 521.52 212.01 572.1 212.01C622.68 212.01 663.83 170.86 663.83 120.28C663.83 69.6999 622.68 28.5499 572.1 28.5499Z" fill="white"/>
<path d="M572.1 204.83C525.48 204.83 487.55 166.9 487.55 120.28C487.55 73.6599 525.48 35.7299 572.1 35.7299C618.72 35.7299 656.65 73.6599 656.65 120.28C656.64 166.9 618.71 204.83 572.1 204.83ZM572.1 38.9199C527.24 38.9199 490.74 75.4199 490.74 120.28C490.74 165.14 527.24 201.64 572.1 201.64C616.96 201.64 653.46 165.14 653.46 120.28C653.46 75.4199 616.96 38.9199 572.1 38.9199Z" fill="white"/>
<path d="M572.1 194.46C531.2 194.46 497.92 161.18 497.92 120.28C497.92 79.3799 531.2 46.0999 572.1 46.0999C613 46.0999 646.28 79.3799 646.28 120.28C646.27 161.18 613 194.46 572.1 194.46ZM572.1 49.2899C532.95 49.2899 501.11 81.1399 501.11 120.28C501.11 159.43 532.96 191.27 572.1 191.27C611.24 191.27 643.09 159.42 643.09 120.28C643.09 81.1399 611.24 49.2899 572.1 49.2899Z" fill="white"/>
<path d="M572.1 184.09C536.92 184.09 508.29 155.47 508.29 120.28C508.29 85.0999 536.91 56.4699 572.1 56.4699C607.28 56.4699 635.91 85.0899 635.91 120.28C635.9 155.47 607.28 184.09 572.1 184.09ZM572.1 59.6599C538.67 59.6599 511.48 86.8599 511.48 120.28C511.48 153.71 538.68 180.9 572.1 180.9C605.52 180.9 632.72 153.7 632.72 120.28C632.72 86.8599 605.52 59.6599 572.1 59.6599Z" fill="white"/>
<path d="M572.1 173.72C542.63 173.72 518.66 149.75 518.66 120.28C518.66 90.8099 542.63 66.8399 572.1 66.8399C601.57 66.8399 625.54 90.8099 625.54 120.28C625.53 149.75 601.56 173.72 572.1 173.72ZM572.1 70.0299C544.39 70.0299 521.85 92.5699 521.85 120.28C521.85 147.99 544.39 170.54 572.1 170.54C599.81 170.54 622.35 148 622.35 120.28C622.35 92.5699 599.81 70.0299 572.1 70.0299Z" fill="white"/>
<path d="M572.1 163.35C548.35 163.35 529.03 144.03 529.03 120.28C529.03 96.5299 548.35 77.2099 572.1 77.2099C595.85 77.2099 615.17 96.5299 615.17 120.28C615.17 144.03 595.84 163.35 572.1 163.35ZM572.1 80.3999C550.11 80.3999 532.21 98.2899 532.21 120.29C532.21 142.28 550.1 160.18 572.1 160.18C594.1 160.18 611.99 142.29 611.99 120.29C611.98 98.2899 594.09 80.3999 572.1 80.3999Z" fill="white"/>
</svg>
