<svg width="682" height="630" viewBox="0 0 682 630" fill="none" xmlns="http://www.w3.org/2000/svg">
<path d="M515.04 274.78C444.93 267.83 378.1 301.13 311.34 323.67C288.4 331.42 264.06 338.02 240.19 333.93C202.02 327.39 173.41 294.93 155.46 260.62C137.51 226.31 126.85 188.32 106.39 155.45C98.06 142.06 87.29 129.28 74.64 119.88V544.42H672.16C686.06 487.79 686.62 427.41 661.05 375.73C633.65 320.38 576.52 280.87 515.04 274.78Z" fill="#E0C49C"/>
<path d="M161.951 601.338C198.999 564.289 198.999 504.222 161.951 467.173C124.902 430.124 64.8342 430.124 27.7855 467.173C-9.26314 504.222 -9.26315 564.289 27.7855 601.338C64.8342 638.387 124.902 638.387 161.951 601.338Z" fill="#D7EAEA"/>
<path d="M387.78 58.78C373.68 62.85 359.08 53.58 349.41 42.54C339.74 31.5 332.44 18.11 320.61 9.41996C295.48 -9.02004 255.65 2.66997 240.5 29.91C225.35 57.16 233.51 93.69 255.57 115.72C277.62 137.75 310.82 146.23 341.82 142.96C369.06 140.09 395.77 128.44 414.4 108.37C433.03 88.3 442.77 59.53 437.46 32.66C434.35 16.92 417.57 -3.59004 409.76 16.6C403.71 32.29 409.72 52.45 387.78 58.78Z" fill="#ACDBDF"/>
<path d="M22.39 184.87C23.3233 184.87 24.08 184.113 24.08 183.18C24.08 182.247 23.3233 181.49 22.39 181.49C21.4566 181.49 20.7 182.247 20.7 183.18C20.7 184.113 21.4566 184.87 22.39 184.87Z" fill="white"/>
<path d="M37.59 184.87C38.5233 184.87 39.28 184.113 39.28 183.18C39.28 182.247 38.5233 181.49 37.59 181.49C36.6566 181.49 35.9 182.247 35.9 183.18C35.9 184.113 36.6566 184.87 37.59 184.87Z" fill="white"/>
<path d="M52.79 184.87C53.7233 184.87 54.48 184.113 54.48 183.18C54.48 182.247 53.7233 181.49 52.79 181.49C51.8566 181.49 51.1 182.247 51.1 183.18C51.1 184.113 51.8566 184.87 52.79 184.87Z" fill="white"/>
<path d="M69.68 183.18C69.68 184.11 68.92 184.87 67.99 184.87C67.06 184.87 66.3 184.11 66.3 183.18C66.3 182.25 67.06 181.49 67.99 181.49C68.92 181.49 69.68 182.25 69.68 183.18Z" fill="white"/>
<path d="M84.88 183.18C84.88 184.11 84.12 184.87 83.19 184.87C82.26 184.87 81.5 184.11 81.5 183.18C81.5 182.25 82.26 181.49 83.19 181.49C84.12 181.49 84.88 182.25 84.88 183.18Z" fill="white"/>
<path d="M98.39 184.87C99.3233 184.87 100.08 184.113 100.08 183.18C100.08 182.247 99.3233 181.49 98.39 181.49C97.4566 181.49 96.7 182.247 96.7 183.18C96.7 184.113 97.4566 184.87 98.39 184.87Z" fill="white"/>
<path d="M113.59 184.87C114.523 184.87 115.28 184.113 115.28 183.18C115.28 182.247 114.523 181.49 113.59 181.49C112.657 181.49 111.9 182.247 111.9 183.18C111.9 184.113 112.657 184.87 113.59 184.87Z" fill="white"/>
<path d="M128.79 184.87C129.723 184.87 130.48 184.113 130.48 183.18C130.48 182.247 129.723 181.49 128.79 181.49C127.857 181.49 127.1 182.247 127.1 183.18C127.1 184.113 127.857 184.87 128.79 184.87Z" fill="white"/>
<path d="M143.99 184.87C144.923 184.87 145.68 184.113 145.68 183.18C145.68 182.247 144.923 181.49 143.99 181.49C143.057 181.49 142.3 182.247 142.3 183.18C142.3 184.113 143.057 184.87 143.99 184.87Z" fill="white"/>
<path d="M159.19 184.87C160.123 184.87 160.88 184.113 160.88 183.18C160.88 182.247 160.123 181.49 159.19 181.49C158.257 181.49 157.5 182.247 157.5 183.18C157.5 184.113 158.257 184.87 159.19 184.87Z" fill="white"/>
<path d="M174.39 184.87C175.323 184.87 176.08 184.113 176.08 183.18C176.08 182.247 175.323 181.49 174.39 181.49C173.457 181.49 172.7 182.247 172.7 183.18C172.7 184.113 173.457 184.87 174.39 184.87Z" fill="white"/>
<path d="M22.39 198.38C23.3233 198.38 24.08 197.623 24.08 196.69C24.08 195.757 23.3233 195 22.39 195C21.4566 195 20.7 195.757 20.7 196.69C20.7 197.623 21.4566 198.38 22.39 198.38Z" fill="white"/>
<path d="M37.59 198.38C38.5233 198.38 39.28 197.623 39.28 196.69C39.28 195.757 38.5233 195 37.59 195C36.6566 195 35.9 195.757 35.9 196.69C35.9 197.623 36.6566 198.38 37.59 198.38Z" fill="white"/>
<path d="M52.79 198.38C53.7233 198.38 54.48 197.623 54.48 196.69C54.48 195.757 53.7233 195 52.79 195C51.8566 195 51.1 195.757 51.1 196.69C51.1 197.623 51.8566 198.38 52.79 198.38Z" fill="white"/>
<path d="M69.68 196.69C69.68 197.62 68.92 198.38 67.99 198.38C67.06 198.38 66.3 197.62 66.3 196.69C66.3 195.76 67.06 195 67.99 195C68.92 195 69.68 195.76 69.68 196.69Z" fill="white"/>
<path d="M84.88 196.69C84.88 197.62 84.12 198.38 83.19 198.38C82.26 198.38 81.5 197.62 81.5 196.69C81.5 195.76 82.26 195 83.19 195C84.12 195 84.88 195.76 84.88 196.69Z" fill="white"/>
<path d="M98.39 198.38C99.3233 198.38 100.08 197.623 100.08 196.69C100.08 195.757 99.3233 195 98.39 195C97.4566 195 96.7 195.757 96.7 196.69C96.7 197.623 97.4566 198.38 98.39 198.38Z" fill="white"/>
<path d="M113.59 198.38C114.523 198.38 115.28 197.623 115.28 196.69C115.28 195.757 114.523 195 113.59 195C112.657 195 111.9 195.757 111.9 196.69C111.9 197.623 112.657 198.38 113.59 198.38Z" fill="white"/>
<path d="M128.79 198.38C129.723 198.38 130.48 197.623 130.48 196.69C130.48 195.757 129.723 195 128.79 195C127.857 195 127.1 195.757 127.1 196.69C127.1 197.623 127.857 198.38 128.79 198.38Z" fill="white"/>
<path d="M143.99 198.38C144.923 198.38 145.68 197.623 145.68 196.69C145.68 195.757 144.923 195 143.99 195C143.057 195 142.3 195.757 142.3 196.69C142.3 197.623 143.057 198.38 143.99 198.38Z" fill="white"/>
<path d="M159.19 198.38C160.123 198.38 160.88 197.623 160.88 196.69C160.88 195.757 160.123 195 159.19 195C158.257 195 157.5 195.757 157.5 196.69C157.5 197.623 158.257 198.38 159.19 198.38Z" fill="white"/>
<path d="M174.39 198.38C175.323 198.38 176.08 197.623 176.08 196.69C176.08 195.757 175.323 195 174.39 195C173.457 195 172.7 195.757 172.7 196.69C172.7 197.623 173.457 198.38 174.39 198.38Z" fill="white"/>
<path d="M22.39 211.89C23.3233 211.89 24.08 211.133 24.08 210.2C24.08 209.267 23.3233 208.51 22.39 208.51C21.4566 208.51 20.7 209.267 20.7 210.2C20.7 211.133 21.4566 211.89 22.39 211.89Z" fill="white"/>
<path d="M37.59 211.89C38.5233 211.89 39.28 211.133 39.28 210.2C39.28 209.267 38.5233 208.51 37.59 208.51C36.6566 208.51 35.9 209.267 35.9 210.2C35.9 211.133 36.6566 211.89 37.59 211.89Z" fill="white"/>
<path d="M52.79 211.89C53.7233 211.89 54.48 211.133 54.48 210.2C54.48 209.267 53.7233 208.51 52.79 208.51C51.8566 208.51 51.1 209.267 51.1 210.2C51.1 211.133 51.8566 211.89 52.79 211.89Z" fill="white"/>
<path d="M69.68 210.2C69.68 211.13 68.92 211.89 67.99 211.89C67.06 211.89 66.3 211.13 66.3 210.2C66.3 209.27 67.06 208.51 67.99 208.51C68.92 208.51 69.68 209.27 69.68 210.2Z" fill="white"/>
<path d="M84.88 210.2C84.88 211.13 84.12 211.89 83.19 211.89C82.26 211.89 81.5 211.13 81.5 210.2C81.5 209.27 82.26 208.51 83.19 208.51C84.12 208.51 84.88 209.27 84.88 210.2Z" fill="white"/>
<path d="M98.39 211.89C99.3233 211.89 100.08 211.133 100.08 210.2C100.08 209.267 99.3233 208.51 98.39 208.51C97.4566 208.51 96.7 209.267 96.7 210.2C96.7 211.133 97.4566 211.89 98.39 211.89Z" fill="white"/>
<path d="M113.59 211.89C114.523 211.89 115.28 211.133 115.28 210.2C115.28 209.267 114.523 208.51 113.59 208.51C112.657 208.51 111.9 209.267 111.9 210.2C111.9 211.133 112.657 211.89 113.59 211.89Z" fill="white"/>
<path d="M128.79 211.89C129.723 211.89 130.48 211.133 130.48 210.2C130.48 209.267 129.723 208.51 128.79 208.51C127.857 208.51 127.1 209.267 127.1 210.2C127.1 211.133 127.857 211.89 128.79 211.89Z" fill="white"/>
<path d="M143.99 211.89C144.923 211.89 145.68 211.133 145.68 210.2C145.68 209.267 144.923 208.51 143.99 208.51C143.057 208.51 142.3 209.267 142.3 210.2C142.3 211.133 143.057 211.89 143.99 211.89Z" fill="white"/>
<path d="M159.19 211.89C160.123 211.89 160.88 211.133 160.88 210.2C160.88 209.267 160.123 208.51 159.19 208.51C158.257 208.51 157.5 209.267 157.5 210.2C157.5 211.133 158.257 211.89 159.19 211.89Z" fill="white"/>
<path d="M174.39 211.89C175.323 211.89 176.08 211.133 176.08 210.2C176.08 209.267 175.323 208.51 174.39 208.51C173.457 208.51 172.7 209.267 172.7 210.2C172.7 211.133 173.457 211.89 174.39 211.89Z" fill="white"/>
<path d="M24.08 223.71C24.08 224.64 23.32 225.4 22.39 225.4C21.46 225.4 20.7 224.64 20.7 223.71C20.7 222.78 21.46 222.02 22.39 222.02C23.32 222.02 24.08 222.78 24.08 223.71Z" fill="white"/>
<path d="M39.28 223.71C39.28 224.64 38.52 225.4 37.59 225.4C36.66 225.4 35.9 224.64 35.9 223.71C35.9 222.78 36.66 222.02 37.59 222.02C38.52 222.02 39.28 222.78 39.28 223.71Z" fill="white"/>
<path d="M54.48 223.71C54.48 224.64 53.72 225.4 52.79 225.4C51.86 225.4 51.1 224.64 51.1 223.71C51.1 222.78 51.86 222.02 52.79 222.02C53.72 222.02 54.48 222.78 54.48 223.71Z" fill="white"/>
<path d="M69.68 223.71C69.68 224.64 68.92 225.4 67.99 225.4C67.06 225.4 66.3 224.64 66.3 223.71C66.3 222.78 67.06 222.02 67.99 222.02C68.92 222.02 69.68 222.78 69.68 223.71Z" fill="white"/>
<path d="M84.88 223.71C84.88 224.64 84.12 225.4 83.19 225.4C82.26 225.4 81.5 224.64 81.5 223.71C81.5 222.78 82.26 222.02 83.19 222.02C84.12 222.02 84.88 222.78 84.88 223.71Z" fill="white"/>
<path d="M100.08 223.71C100.08 224.64 99.32 225.4 98.39 225.4C97.46 225.4 96.7 224.64 96.7 223.71C96.7 222.78 97.46 222.02 98.39 222.02C99.32 222.02 100.08 222.78 100.08 223.71Z" fill="white"/>
<path d="M115.28 223.71C115.28 224.64 114.52 225.4 113.59 225.4C112.66 225.4 111.9 224.64 111.9 223.71C111.9 222.78 112.66 222.02 113.59 222.02C114.52 222.02 115.28 222.78 115.28 223.71Z" fill="white"/>
<path d="M130.48 223.71C130.48 224.64 129.72 225.4 128.79 225.4C127.86 225.4 127.1 224.64 127.1 223.71C127.1 222.78 127.86 222.02 128.79 222.02C129.72 222.02 130.48 222.78 130.48 223.71Z" fill="white"/>
<path d="M145.68 223.71C145.68 224.64 144.92 225.4 143.99 225.4C143.06 225.4 142.3 224.64 142.3 223.71C142.3 222.78 143.06 222.02 143.99 222.02C144.92 222.02 145.68 222.78 145.68 223.71Z" fill="white"/>
<path d="M160.88 223.71C160.88 224.64 160.12 225.4 159.19 225.4C158.26 225.4 157.5 224.64 157.5 223.71C157.5 222.78 158.26 222.02 159.19 222.02C160.12 222.02 160.88 222.78 160.88 223.71Z" fill="white"/>
<path d="M176.08 223.71C176.08 224.64 175.32 225.4 174.39 225.4C173.46 225.4 172.7 224.64 172.7 223.71C172.7 222.78 173.46 222.02 174.39 222.02C175.32 222.02 176.08 222.78 176.08 223.71Z" fill="white"/>
<path d="M24.08 237.22C24.08 238.15 23.32 238.91 22.39 238.91C21.46 238.91 20.7 238.15 20.7 237.22C20.7 236.29 21.46 235.53 22.39 235.53C23.32 235.53 24.08 236.29 24.08 237.22Z" fill="white"/>
<path d="M39.28 237.22C39.28 238.15 38.52 238.91 37.59 238.91C36.66 238.91 35.9 238.15 35.9 237.22C35.9 236.29 36.66 235.53 37.59 235.53C38.52 235.53 39.28 236.29 39.28 237.22Z" fill="white"/>
<path d="M54.48 237.22C54.48 238.15 53.72 238.91 52.79 238.91C51.86 238.91 51.1 238.15 51.1 237.22C51.1 236.29 51.86 235.53 52.79 235.53C53.72 235.53 54.48 236.29 54.48 237.22Z" fill="white"/>
<path d="M69.68 237.22C69.68 238.15 68.92 238.91 67.99 238.91C67.06 238.91 66.3 238.15 66.3 237.22C66.3 236.29 67.06 235.53 67.99 235.53C68.92 235.53 69.68 236.29 69.68 237.22Z" fill="white"/>
<path d="M84.88 237.22C84.88 238.15 84.12 238.91 83.19 238.91C82.26 238.91 81.5 238.15 81.5 237.22C81.5 236.29 82.26 235.53 83.19 235.53C84.12 235.53 84.88 236.29 84.88 237.22Z" fill="white"/>
<path d="M100.08 237.22C100.08 238.15 99.32 238.91 98.39 238.91C97.46 238.91 96.7 238.15 96.7 237.22C96.7 236.29 97.46 235.53 98.39 235.53C99.32 235.53 100.08 236.29 100.08 237.22Z" fill="white"/>
<path d="M115.28 237.22C115.28 238.15 114.52 238.91 113.59 238.91C112.66 238.91 111.9 238.15 111.9 237.22C111.9 236.29 112.66 235.53 113.59 235.53C114.52 235.53 115.28 236.29 115.28 237.22Z" fill="white"/>
<path d="M130.48 237.22C130.48 238.15 129.72 238.91 128.79 238.91C127.86 238.91 127.1 238.15 127.1 237.22C127.1 236.29 127.86 235.53 128.79 235.53C129.72 235.53 130.48 236.29 130.48 237.22Z" fill="white"/>
<path d="M145.68 237.22C145.68 238.15 144.92 238.91 143.99 238.91C143.06 238.91 142.3 238.15 142.3 237.22C142.3 236.29 143.06 235.53 143.99 235.53C144.92 235.53 145.68 236.29 145.68 237.22Z" fill="white"/>
<path d="M160.88 237.22C160.88 238.15 160.12 238.91 159.19 238.91C158.26 238.91 157.5 238.15 157.5 237.22C157.5 236.29 158.26 235.53 159.19 235.53C160.12 235.53 160.88 236.29 160.88 237.22Z" fill="white"/>
<path d="M176.08 237.22C176.08 238.15 175.32 238.91 174.39 238.91C173.46 238.91 172.7 238.15 172.7 237.22C172.7 236.29 173.46 235.53 174.39 235.53C175.32 235.53 176.08 236.29 176.08 237.22Z" fill="white"/>
<path d="M24.08 250.73C24.08 251.66 23.32 252.42 22.39 252.42C21.46 252.42 20.7 251.66 20.7 250.73C20.7 249.8 21.46 249.04 22.39 249.04C23.32 249.04 24.08 249.8 24.08 250.73Z" fill="white"/>
<path d="M39.28 250.73C39.28 251.66 38.52 252.42 37.59 252.42C36.66 252.42 35.9 251.66 35.9 250.73C35.9 249.8 36.66 249.04 37.59 249.04C38.52 249.04 39.28 249.8 39.28 250.73Z" fill="white"/>
<path d="M54.48 250.73C54.48 251.66 53.72 252.42 52.79 252.42C51.86 252.42 51.1 251.66 51.1 250.73C51.1 249.8 51.86 249.04 52.79 249.04C53.72 249.04 54.48 249.8 54.48 250.73Z" fill="white"/>
<path d="M69.68 250.73C69.68 251.66 68.92 252.42 67.99 252.42C67.06 252.42 66.3 251.66 66.3 250.73C66.3 249.8 67.06 249.04 67.99 249.04C68.92 249.04 69.68 249.8 69.68 250.73Z" fill="white"/>
<path d="M84.88 250.73C84.88 251.66 84.12 252.42 83.19 252.42C82.26 252.42 81.5 251.66 81.5 250.73C81.5 249.8 82.26 249.04 83.19 249.04C84.12 249.04 84.88 249.8 84.88 250.73Z" fill="white"/>
<path d="M100.08 250.73C100.08 251.66 99.32 252.42 98.39 252.42C97.46 252.42 96.7 251.66 96.7 250.73C96.7 249.8 97.46 249.04 98.39 249.04C99.32 249.04 100.08 249.8 100.08 250.73Z" fill="white"/>
<path d="M115.28 250.73C115.28 251.66 114.52 252.42 113.59 252.42C112.66 252.42 111.9 251.66 111.9 250.73C111.9 249.8 112.66 249.04 113.59 249.04C114.52 249.04 115.28 249.8 115.28 250.73Z" fill="white"/>
<path d="M130.48 250.73C130.48 251.66 129.72 252.42 128.79 252.42C127.86 252.42 127.1 251.66 127.1 250.73C127.1 249.8 127.86 249.04 128.79 249.04C129.72 249.04 130.48 249.8 130.48 250.73Z" fill="white"/>
<path d="M145.68 250.73C145.68 251.66 144.92 252.42 143.99 252.42C143.06 252.42 142.3 251.66 142.3 250.73C142.3 249.8 143.06 249.04 143.99 249.04C144.92 249.04 145.68 249.8 145.68 250.73Z" fill="white"/>
<path d="M160.88 250.73C160.88 251.66 160.12 252.42 159.19 252.42C158.26 252.42 157.5 251.66 157.5 250.73C157.5 249.8 158.26 249.04 159.19 249.04C160.12 249.04 160.88 249.8 160.88 250.73Z" fill="white"/>
<path d="M176.08 250.73C176.08 251.66 175.32 252.42 174.39 252.42C173.46 252.42 172.7 251.66 172.7 250.73C172.7 249.8 173.46 249.04 174.39 249.04C175.32 249.04 176.08 249.8 176.08 250.73Z" fill="white"/>
<path d="M22.39 265.93C23.3233 265.93 24.08 265.173 24.08 264.24C24.08 263.307 23.3233 262.55 22.39 262.55C21.4566 262.55 20.7 263.307 20.7 264.24C20.7 265.173 21.4566 265.93 22.39 265.93Z" fill="white"/>
<path d="M37.59 265.93C38.5233 265.93 39.28 265.173 39.28 264.24C39.28 263.307 38.5233 262.55 37.59 262.55C36.6566 262.55 35.9 263.307 35.9 264.24C35.9 265.173 36.6566 265.93 37.59 265.93Z" fill="white"/>
<path d="M52.79 265.93C53.7233 265.93 54.48 265.173 54.48 264.24C54.48 263.307 53.7233 262.55 52.79 262.55C51.8566 262.55 51.1 263.307 51.1 264.24C51.1 265.173 51.8566 265.93 52.79 265.93Z" fill="white"/>
<path d="M69.68 264.24C69.68 265.17 68.92 265.93 67.99 265.93C67.06 265.93 66.3 265.17 66.3 264.24C66.3 263.31 67.06 262.55 67.99 262.55C68.92 262.56 69.68 263.31 69.68 264.24Z" fill="white"/>
<path d="M84.88 264.24C84.88 265.17 84.12 265.93 83.19 265.93C82.26 265.93 81.5 265.17 81.5 264.24C81.5 263.31 82.26 262.55 83.19 262.55C84.12 262.56 84.88 263.31 84.88 264.24Z" fill="white"/>
<path d="M98.39 265.93C99.3233 265.93 100.08 265.173 100.08 264.24C100.08 263.307 99.3233 262.55 98.39 262.55C97.4566 262.55 96.7 263.307 96.7 264.24C96.7 265.173 97.4566 265.93 98.39 265.93Z" fill="white"/>
<path d="M113.59 265.93C114.523 265.93 115.28 265.173 115.28 264.24C115.28 263.307 114.523 262.55 113.59 262.55C112.657 262.55 111.9 263.307 111.9 264.24C111.9 265.173 112.657 265.93 113.59 265.93Z" fill="white"/>
<path d="M128.79 265.93C129.723 265.93 130.48 265.173 130.48 264.24C130.48 263.307 129.723 262.55 128.79 262.55C127.857 262.55 127.1 263.307 127.1 264.24C127.1 265.173 127.857 265.93 128.79 265.93Z" fill="white"/>
<path d="M143.99 265.93C144.923 265.93 145.68 265.173 145.68 264.24C145.68 263.307 144.923 262.55 143.99 262.55C143.057 262.55 142.3 263.307 142.3 264.24C142.3 265.173 143.057 265.93 143.99 265.93Z" fill="white"/>
<path d="M159.19 265.93C160.123 265.93 160.88 265.173 160.88 264.24C160.88 263.307 160.123 262.55 159.19 262.55C158.257 262.55 157.5 263.307 157.5 264.24C157.5 265.173 158.257 265.93 159.19 265.93Z" fill="white"/>
<path d="M174.39 265.93C175.323 265.93 176.08 265.173 176.08 264.24C176.08 263.307 175.323 262.55 174.39 262.55C173.457 262.55 172.7 263.307 172.7 264.24C172.7 265.173 173.457 265.93 174.39 265.93Z" fill="white"/>
<path d="M24.08 277.76C24.08 278.69 23.32 279.45 22.39 279.45C21.46 279.45 20.7 278.69 20.7 277.76C20.7 276.83 21.46 276.07 22.39 276.07C23.32 276.07 24.08 276.82 24.08 277.76Z" fill="white"/>
<path d="M39.28 277.76C39.28 278.69 38.52 279.45 37.59 279.45C36.66 279.45 35.9 278.69 35.9 277.76C35.9 276.83 36.66 276.07 37.59 276.07C38.52 276.07 39.28 276.82 39.28 277.76Z" fill="white"/>
<path d="M54.48 277.76C54.48 278.69 53.72 279.45 52.79 279.45C51.86 279.45 51.1 278.69 51.1 277.76C51.1 276.83 51.86 276.07 52.79 276.07C53.72 276.07 54.48 276.82 54.48 277.76Z" fill="white"/>
<path d="M69.68 277.76C69.68 278.69 68.92 279.45 67.99 279.45C67.06 279.45 66.3 278.69 66.3 277.76C66.3 276.83 67.06 276.07 67.99 276.07C68.92 276.07 69.68 276.82 69.68 277.76Z" fill="white"/>
<path d="M84.88 277.76C84.88 278.69 84.12 279.45 83.19 279.45C82.26 279.45 81.5 278.69 81.5 277.76C81.5 276.83 82.26 276.07 83.19 276.07C84.12 276.07 84.88 276.82 84.88 277.76Z" fill="white"/>
<path d="M100.08 277.76C100.08 278.69 99.32 279.45 98.39 279.45C97.46 279.45 96.7 278.69 96.7 277.76C96.7 276.83 97.46 276.07 98.39 276.07C99.32 276.07 100.08 276.82 100.08 277.76Z" fill="white"/>
<path d="M115.28 277.76C115.28 278.69 114.52 279.45 113.59 279.45C112.66 279.45 111.9 278.69 111.9 277.76C111.9 276.83 112.66 276.07 113.59 276.07C114.52 276.07 115.28 276.82 115.28 277.76Z" fill="white"/>
<path d="M130.48 277.76C130.48 278.69 129.72 279.45 128.79 279.45C127.86 279.45 127.1 278.69 127.1 277.76C127.1 276.83 127.86 276.07 128.79 276.07C129.72 276.07 130.48 276.82 130.48 277.76Z" fill="white"/>
<path d="M145.68 277.76C145.68 278.69 144.92 279.45 143.99 279.45C143.06 279.45 142.3 278.69 142.3 277.76C142.3 276.83 143.06 276.07 143.99 276.07C144.92 276.07 145.68 276.82 145.68 277.76Z" fill="white"/>
<path d="M160.88 277.76C160.88 278.69 160.12 279.45 159.19 279.45C158.26 279.45 157.5 278.69 157.5 277.76C157.5 276.83 158.26 276.07 159.19 276.07C160.12 276.07 160.88 276.82 160.88 277.76Z" fill="white"/>
<path d="M176.08 277.76C176.08 278.69 175.32 279.45 174.39 279.45C173.46 279.45 172.7 278.69 172.7 277.76C172.7 276.83 173.46 276.07 174.39 276.07C175.32 276.07 176.08 276.82 176.08 277.76Z" fill="white"/>
<path d="M24.08 291.27C24.08 292.2 23.32 292.96 22.39 292.96C21.46 292.96 20.7 292.2 20.7 291.27C20.7 290.34 21.46 289.58 22.39 289.58C23.32 289.58 24.08 290.33 24.08 291.27Z" fill="white"/>
<path d="M39.28 291.27C39.28 292.2 38.52 292.96 37.59 292.96C36.66 292.96 35.9 292.2 35.9 291.27C35.9 290.34 36.66 289.58 37.59 289.58C38.52 289.58 39.28 290.33 39.28 291.27Z" fill="white"/>
<path d="M54.48 291.27C54.48 292.2 53.72 292.96 52.79 292.96C51.86 292.96 51.1 292.2 51.1 291.27C51.1 290.34 51.86 289.58 52.79 289.58C53.72 289.58 54.48 290.33 54.48 291.27Z" fill="white"/>
<path d="M69.68 291.27C69.68 292.2 68.92 292.96 67.99 292.96C67.06 292.96 66.3 292.2 66.3 291.27C66.3 290.34 67.06 289.58 67.99 289.58C68.92 289.58 69.68 290.33 69.68 291.27Z" fill="white"/>
<path d="M84.88 291.27C84.88 292.2 84.12 292.96 83.19 292.96C82.26 292.96 81.5 292.2 81.5 291.27C81.5 290.34 82.26 289.58 83.19 289.58C84.12 289.58 84.88 290.33 84.88 291.27Z" fill="white"/>
<path d="M100.08 291.27C100.08 292.2 99.32 292.96 98.39 292.96C97.46 292.96 96.7 292.2 96.7 291.27C96.7 290.34 97.46 289.58 98.39 289.58C99.32 289.58 100.08 290.33 100.08 291.27Z" fill="white"/>
<path d="M115.28 291.27C115.28 292.2 114.52 292.96 113.59 292.96C112.66 292.96 111.9 292.2 111.9 291.27C111.9 290.34 112.66 289.58 113.59 289.58C114.52 289.58 115.28 290.33 115.28 291.27Z" fill="white"/>
<path d="M130.48 291.27C130.48 292.2 129.72 292.96 128.79 292.96C127.86 292.96 127.1 292.2 127.1 291.27C127.1 290.34 127.86 289.58 128.79 289.58C129.72 289.58 130.48 290.33 130.48 291.27Z" fill="white"/>
<path d="M145.68 291.27C145.68 292.2 144.92 292.96 143.99 292.96C143.06 292.96 142.3 292.2 142.3 291.27C142.3 290.34 143.06 289.58 143.99 289.58C144.92 289.58 145.68 290.33 145.68 291.27Z" fill="white"/>
<path d="M160.88 291.27C160.88 292.2 160.12 292.96 159.19 292.96C158.26 292.96 157.5 292.2 157.5 291.27C157.5 290.34 158.26 289.58 159.19 289.58C160.12 289.58 160.88 290.33 160.88 291.27Z" fill="white"/>
<path d="M176.08 291.27C176.08 292.2 175.32 292.96 174.39 292.96C173.46 292.96 172.7 292.2 172.7 291.27C172.7 290.34 173.46 289.58 174.39 289.58C175.32 289.58 176.08 290.33 176.08 291.27Z" fill="white"/>
<path d="M24.08 304.78C24.08 305.71 23.32 306.47 22.39 306.47C21.46 306.47 20.7 305.71 20.7 304.78C20.7 303.85 21.46 303.09 22.39 303.09C23.32 303.09 24.08 303.85 24.08 304.78Z" fill="white"/>
<path d="M39.28 304.78C39.28 305.71 38.52 306.47 37.59 306.47C36.66 306.47 35.9 305.71 35.9 304.78C35.9 303.85 36.66 303.09 37.59 303.09C38.52 303.09 39.28 303.85 39.28 304.78Z" fill="white"/>
<path d="M54.48 304.78C54.48 305.71 53.72 306.47 52.79 306.47C51.86 306.47 51.1 305.71 51.1 304.78C51.1 303.85 51.86 303.09 52.79 303.09C53.72 303.09 54.48 303.85 54.48 304.78Z" fill="white"/>
<path d="M69.68 304.78C69.68 305.71 68.92 306.47 67.99 306.47C67.06 306.47 66.3 305.71 66.3 304.78C66.3 303.85 67.06 303.09 67.99 303.09C68.92 303.09 69.68 303.85 69.68 304.78Z" fill="white"/>
<path d="M84.88 304.78C84.88 305.71 84.12 306.47 83.19 306.47C82.26 306.47 81.5 305.71 81.5 304.78C81.5 303.85 82.26 303.09 83.19 303.09C84.12 303.09 84.88 303.85 84.88 304.78Z" fill="white"/>
<path d="M100.08 304.78C100.08 305.71 99.32 306.47 98.39 306.47C97.46 306.47 96.7 305.71 96.7 304.78C96.7 303.85 97.46 303.09 98.39 303.09C99.32 303.09 100.08 303.85 100.08 304.78Z" fill="white"/>
<path d="M115.28 304.78C115.28 305.71 114.52 306.47 113.59 306.47C112.66 306.47 111.9 305.71 111.9 304.78C111.9 303.85 112.66 303.09 113.59 303.09C114.52 303.09 115.28 303.85 115.28 304.78Z" fill="white"/>
<path d="M130.48 304.78C130.48 305.71 129.72 306.47 128.79 306.47C127.86 306.47 127.1 305.71 127.1 304.78C127.1 303.85 127.86 303.09 128.79 303.09C129.72 303.09 130.48 303.85 130.48 304.78Z" fill="white"/>
<path d="M145.68 304.78C145.68 305.71 144.92 306.47 143.99 306.47C143.06 306.47 142.3 305.71 142.3 304.78C142.3 303.85 143.06 303.09 143.99 303.09C144.92 303.09 145.68 303.85 145.68 304.78Z" fill="white"/>
<path d="M160.88 304.78C160.88 305.71 160.12 306.47 159.19 306.47C158.26 306.47 157.5 305.71 157.5 304.78C157.5 303.85 158.26 303.09 159.19 303.09C160.12 303.09 160.88 303.85 160.88 304.78Z" fill="white"/>
<path d="M176.08 304.78C176.08 305.71 175.32 306.47 174.39 306.47C173.46 306.47 172.7 305.71 172.7 304.78C172.7 303.85 173.46 303.09 174.39 303.09C175.32 303.09 176.08 303.85 176.08 304.78Z" fill="white"/>
<path d="M22.39 319.98C23.3233 319.98 24.08 319.223 24.08 318.29C24.08 317.357 23.3233 316.6 22.39 316.6C21.4566 316.6 20.7 317.357 20.7 318.29C20.7 319.223 21.4566 319.98 22.39 319.98Z" fill="white"/>
<path d="M37.59 319.98C38.5233 319.98 39.28 319.223 39.28 318.29C39.28 317.357 38.5233 316.6 37.59 316.6C36.6566 316.6 35.9 317.357 35.9 318.29C35.9 319.223 36.6566 319.98 37.59 319.98Z" fill="white"/>
<path d="M52.79 319.98C53.7233 319.98 54.48 319.223 54.48 318.29C54.48 317.357 53.7233 316.6 52.79 316.6C51.8566 316.6 51.1 317.357 51.1 318.29C51.1 319.223 51.8566 319.98 52.79 319.98Z" fill="white"/>
<path d="M69.68 318.29C69.68 319.22 68.92 319.98 67.99 319.98C67.06 319.98 66.3 319.22 66.3 318.29C66.3 317.36 67.06 316.6 67.99 316.6C68.92 316.6 69.68 317.36 69.68 318.29Z" fill="white"/>
<path d="M84.88 318.29C84.88 319.22 84.12 319.98 83.19 319.98C82.26 319.98 81.5 319.22 81.5 318.29C81.5 317.36 82.26 316.6 83.19 316.6C84.12 316.6 84.88 317.36 84.88 318.29Z" fill="white"/>
<path d="M98.39 319.98C99.3233 319.98 100.08 319.223 100.08 318.29C100.08 317.357 99.3233 316.6 98.39 316.6C97.4566 316.6 96.7 317.357 96.7 318.29C96.7 319.223 97.4566 319.98 98.39 319.98Z" fill="white"/>
<path d="M113.59 319.98C114.523 319.98 115.28 319.223 115.28 318.29C115.28 317.357 114.523 316.6 113.59 316.6C112.657 316.6 111.9 317.357 111.9 318.29C111.9 319.223 112.657 319.98 113.59 319.98Z" fill="white"/>
<path d="M128.79 319.98C129.723 319.98 130.48 319.223 130.48 318.29C130.48 317.357 129.723 316.6 128.79 316.6C127.857 316.6 127.1 317.357 127.1 318.29C127.1 319.223 127.857 319.98 128.79 319.98Z" fill="white"/>
<path d="M143.99 319.98C144.923 319.98 145.68 319.223 145.68 318.29C145.68 317.357 144.923 316.6 143.99 316.6C143.057 316.6 142.3 317.357 142.3 318.29C142.3 319.223 143.057 319.98 143.99 319.98Z" fill="white"/>
<path d="M159.19 319.98C160.123 319.98 160.88 319.223 160.88 318.29C160.88 317.357 160.123 316.6 159.19 316.6C158.257 316.6 157.5 317.357 157.5 318.29C157.5 319.223 158.257 319.98 159.19 319.98Z" fill="white"/>
<path d="M174.39 319.98C175.323 319.98 176.08 319.223 176.08 318.29C176.08 317.357 175.323 316.6 174.39 316.6C173.457 316.6 172.7 317.357 172.7 318.29C172.7 319.223 173.457 319.98 174.39 319.98Z" fill="white"/>
<path d="M24.08 331.8C24.08 332.73 23.32 333.49 22.39 333.49C21.46 333.49 20.7 332.73 20.7 331.8C20.7 330.87 21.46 330.11 22.39 330.11C23.32 330.11 24.08 330.87 24.08 331.8Z" fill="white"/>
<path d="M39.28 331.8C39.28 332.73 38.52 333.49 37.59 333.49C36.66 333.49 35.9 332.73 35.9 331.8C35.9 330.87 36.66 330.11 37.59 330.11C38.52 330.11 39.28 330.87 39.28 331.8Z" fill="white"/>
<path d="M54.48 331.8C54.48 332.73 53.72 333.49 52.79 333.49C51.86 333.49 51.1 332.73 51.1 331.8C51.1 330.87 51.86 330.11 52.79 330.11C53.72 330.11 54.48 330.87 54.48 331.8Z" fill="white"/>
<path d="M69.68 331.8C69.68 332.73 68.92 333.49 67.99 333.49C67.06 333.49 66.3 332.73 66.3 331.8C66.3 330.87 67.06 330.11 67.99 330.11C68.92 330.11 69.68 330.87 69.68 331.8Z" fill="white"/>
<path d="M84.88 331.8C84.88 332.73 84.12 333.49 83.19 333.49C82.26 333.49 81.5 332.73 81.5 331.8C81.5 330.87 82.26 330.11 83.19 330.11C84.12 330.11 84.88 330.87 84.88 331.8Z" fill="white"/>
<path d="M100.08 331.8C100.08 332.73 99.32 333.49 98.39 333.49C97.46 333.49 96.7 332.73 96.7 331.8C96.7 330.87 97.46 330.11 98.39 330.11C99.32 330.11 100.08 330.87 100.08 331.8Z" fill="white"/>
<path d="M115.28 331.8C115.28 332.73 114.52 333.49 113.59 333.49C112.66 333.49 111.9 332.73 111.9 331.8C111.9 330.87 112.66 330.11 113.59 330.11C114.52 330.11 115.28 330.87 115.28 331.8Z" fill="white"/>
<path d="M130.48 331.8C130.48 332.73 129.72 333.49 128.79 333.49C127.86 333.49 127.1 332.73 127.1 331.8C127.1 330.87 127.86 330.11 128.79 330.11C129.72 330.11 130.48 330.87 130.48 331.8Z" fill="white"/>
<path d="M145.68 331.8C145.68 332.73 144.92 333.49 143.99 333.49C143.06 333.49 142.3 332.73 142.3 331.8C142.3 330.87 143.06 330.11 143.99 330.11C144.92 330.11 145.68 330.87 145.68 331.8Z" fill="white"/>
<path d="M160.88 331.8C160.88 332.73 160.12 333.49 159.19 333.49C158.26 333.49 157.5 332.73 157.5 331.8C157.5 330.87 158.26 330.11 159.19 330.11C160.12 330.11 160.88 330.87 160.88 331.8Z" fill="white"/>
<path d="M176.08 331.8C176.08 332.73 175.32 333.49 174.39 333.49C173.46 333.49 172.7 332.73 172.7 331.8C172.7 330.87 173.46 330.11 174.39 330.11C175.32 330.11 176.08 330.87 176.08 331.8Z" fill="white"/>
</svg>
