<svg width="489" height="764" viewBox="0 0 489 764" fill="none" xmlns="http://www.w3.org/2000/svg">
<path fill-rule="evenodd" clip-rule="evenodd" d="M317.7 712.014C315.767 713.548 313.5 714.848 310.9 715.914C308.3 716.981 305.467 717.814 302.4 718.414C299.267 719.014 295.9 719.481 292.3 719.814C288.767 720.081 285.033 720.214 281.1 720.214C277.233 720.214 273.2 720.181 269 720.114C264.867 719.981 260.633 719.814 256.3 719.614C251.967 719.414 247.633 719.248 243.3 719.114C238.9 718.914 234.533 718.814 230.2 718.814C225.933 718.748 221.7 718.814 217.5 719.014C213.3 719.214 209.233 719.548 205.3 720.014C201.367 720.481 197.533 721.081 193.8 721.814C190.067 722.481 186.433 723.248 182.9 724.114C179.367 724.981 175.967 725.914 172.7 726.914C169.367 727.848 166.1 728.781 162.9 729.714C159.767 730.648 156.7 731.581 153.7 732.514C150.7 733.381 147.8 734.181 145 734.914C142.133 735.648 139.333 736.281 136.6 736.814C133.867 737.281 131.2 737.614 128.6 737.814C125.933 738.014 123.333 738.048 120.8 737.914C118.267 737.714 115.8 737.314 113.4 736.714C110.933 736.114 108.5 735.314 106.1 734.314C103.767 733.314 101.5 732.114 99.3 730.714C97.0333 729.314 94.8333 727.748 92.7 726.014C90.6333 724.281 88.6 722.414 86.6 720.414C84.6667 718.414 82.8 716.314 81 714.114C79.2667 711.848 77.6 709.481 76 707.014C74.4 704.614 72.9333 702.114 71.6 699.514C70.2667 696.914 69.0333 694.248 67.9 691.514C66.7667 688.781 65.7667 686.014 64.9 683.214C64.0333 680.414 63.3 677.614 62.7 674.814C62.1 671.948 61.6 669.081 61.2 666.214C60.8 663.348 60.5 660.448 60.3 657.514C60.0333 654.581 59.8333 651.614 59.7 648.614C59.6333 645.614 59.5333 642.581 59.4 639.514C59.3333 636.448 59.2667 633.348 59.2 630.214C59.0667 627.081 58.9333 623.881 58.8 620.614C58.6 617.348 58.3333 614.048 58 610.714C57.7333 607.314 57.3333 603.881 56.8 600.414C56.2667 596.948 55.6333 593.414 54.9 589.814C54.1667 586.214 53.2667 582.548 52.2 578.814C51.1333 575.081 49.9667 571.281 48.7 567.414C47.5 563.614 46.2 559.748 44.8 555.814C43.4 551.948 42 548.081 40.6 544.214C39.1333 540.281 37.7333 536.381 36.4 532.514C35.0667 528.648 33.8 524.814 32.6 521.014C31.4 517.214 30.3333 513.481 29.4 509.814C28.4667 506.148 27.7 502.548 27.1 499.014C26.5667 495.481 26.2333 492.048 26.1 488.714C25.9 485.448 26 482.248 26.4 479.114C26.8 476.048 27.5 473.114 28.5 470.314C29.5 467.581 30.8 464.948 32.4 462.414C33.9333 459.948 35.7 457.648 37.7 455.514C39.7667 453.381 42 451.414 44.4 449.614C46.8667 447.881 49.4667 446.314 52.2 444.914C54.9333 443.514 57.8 442.314 60.8 441.314C63.8 440.314 66.9 439.548 70.1 439.014C73.2333 438.481 76.4333 438.148 79.7 438.014C82.9667 437.948 86.2333 438.114 89.5 438.514C92.7667 438.914 96 439.548 99.2 440.414C102.333 441.281 105.467 442.448 108.6 443.914C111.667 445.314 114.667 446.914 117.6 448.714C120.533 450.581 123.433 452.581 126.3 454.714C129.167 456.848 132 459.114 134.8 461.514C137.6 463.914 140.4 466.348 143.2 468.814C146 471.281 148.767 473.748 151.5 476.214C154.3 478.748 157.1 481.214 159.9 483.614C162.7 485.948 165.533 488.214 168.4 490.414C171.267 492.614 174.167 494.648 177.1 496.514C180.033 498.381 183 500.048 186 501.514C189.067 502.981 192.2 504.214 195.4 505.214C198.533 506.214 201.733 506.981 205 507.514C208.267 508.114 211.533 508.514 214.8 508.714C218.067 508.981 221.333 509.114 224.6 509.114C227.867 509.181 231.1 509.148 234.3 509.014C237.5 508.948 240.633 508.848 243.7 508.714C246.767 508.581 249.733 508.514 252.6 508.514C255.467 508.448 258.233 508.481 260.9 508.614C263.567 508.748 266.067 509.048 268.4 509.514C270.8 509.914 273 510.514 275 511.314C277 512.114 278.833 513.148 280.5 514.414C282.167 515.681 283.667 517.181 285 518.914C286.267 520.581 287.433 522.481 288.5 524.614C289.567 526.748 290.5 529.081 291.3 531.614C292.167 534.081 292.933 536.748 293.6 539.614C294.333 542.481 295 545.514 295.6 548.714C296.2 551.848 296.8 555.148 297.4 558.614C298 562.081 298.6 565.681 299.2 569.414C299.8 573.148 300.467 576.981 301.2 580.914C301.933 584.848 302.767 588.848 303.7 592.914C304.567 597.048 305.567 601.248 306.7 605.514C307.767 609.781 308.933 614.081 310.2 618.414C311.4 622.814 312.633 627.181 313.9 631.514C315.167 635.848 316.4 640.148 317.6 644.414C318.733 648.681 319.833 652.848 320.9 656.914C321.9 661.048 322.8 665.048 323.6 668.914C324.4 672.781 325 676.514 325.4 680.114C325.8 683.648 326 687.014 326 690.214C326 693.414 325.7 696.348 325.1 699.014C324.5 701.748 323.6 704.214 322.4 706.414C321.2 708.548 319.633 710.414 317.7 712.014Z" fill="url(#paint0_linear_157_22)" fill-opacity="0.72"/>
<path fill-rule="evenodd" clip-rule="evenodd" d="M449.68 296.9C447.347 297.833 444.913 298.533 442.38 299C439.913 299.533 437.313 299.833 434.58 299.9C431.847 300.033 429.047 299.967 426.18 299.7C423.313 299.5 420.347 299.1 417.28 298.5C414.213 297.9 411.08 297.167 407.88 296.3C404.747 295.433 401.513 294.433 398.18 293.3C394.847 292.1 391.48 290.8 388.08 289.4C384.68 288 381.247 286.5 377.78 284.9C374.247 283.233 370.713 281.5 367.18 279.7C363.647 277.9 360.08 276 356.48 274C352.88 272 349.28 269.967 345.68 267.9C342.08 265.767 338.48 263.6 334.88 261.4C331.28 259.133 327.68 256.867 324.08 254.6C320.48 252.267 316.913 249.933 313.38 247.6C309.78 245.2 306.247 242.833 302.78 240.5C299.247 238.1 295.78 235.7 292.38 233.3C288.98 230.967 285.613 228.6 282.28 226.2C278.947 223.867 275.68 221.533 272.48 219.2C269.28 216.867 266.113 214.533 262.98 212.2C259.913 209.867 256.88 207.533 253.88 205.2C250.947 202.867 248.047 200.567 245.18 198.3C242.38 195.967 239.647 193.633 236.98 191.3C234.313 189.033 231.713 186.733 229.18 184.4C226.713 182.067 224.313 179.767 221.98 177.5C219.647 175.167 217.413 172.833 215.28 170.5C213.147 168.167 211.113 165.833 209.18 163.5C207.247 161.167 205.447 158.833 203.78 156.5C202.047 154.1 200.447 151.733 198.98 149.4C197.447 147 196.08 144.6 194.88 142.2C193.613 139.8 192.48 137.367 191.48 134.9C190.48 132.5 189.613 130.067 188.88 127.6C188.147 125.133 187.547 122.633 187.08 120.1C186.613 117.633 186.313 115.133 186.18 112.6C185.98 110.067 185.947 107.5 186.08 104.9C186.147 102.367 186.38 99.8 186.78 97.2C187.113 94.6 187.613 92 188.28 89.4C188.88 86.8 189.613 84.2333 190.48 81.7C191.347 79.1 192.313 76.5333 193.38 74C194.447 71.4667 195.613 68.9667 196.88 66.5C198.147 64.0333 199.513 61.6 200.98 59.2C202.513 56.7333 204.08 54.3333 205.68 52C207.347 49.6667 209.08 47.4 210.88 45.2C212.68 42.9333 214.547 40.7333 216.48 38.6C218.413 36.4667 220.413 34.4 222.48 32.4C224.547 30.4 226.68 28.5 228.88 26.7C231.08 24.8333 233.313 23.0667 235.58 21.4C237.847 19.6667 240.147 18.0667 242.48 16.6C244.88 15.0667 247.28 13.6333 249.68 12.3C252.147 11.0333 254.613 9.83333 257.08 8.7C259.547 7.56667 262.047 6.56667 264.58 5.7C267.047 4.83333 269.547 4.06667 272.08 3.4C274.68 2.73333 277.247 2.16667 279.78 1.7C282.38 1.23333 284.98 0.866667 287.58 0.6C290.113 0.333333 292.68 0.166667 295.28 0.1C297.947 -0.0333333 300.58 -0.0333333 303.18 0.1C305.78 0.166667 308.38 0.333333 310.98 0.6C313.647 0.866667 316.28 1.2 318.88 1.6C321.48 2.06667 324.113 2.56667 326.78 3.1C329.38 3.7 331.98 4.33333 334.58 5C337.18 5.73333 339.78 6.5 342.38 7.3C344.98 8.16667 347.58 9.06667 350.18 10C352.713 10.9333 355.28 11.9333 357.88 13C360.413 14.0667 362.947 15.1667 365.48 16.3C368.013 17.5 370.513 18.7 372.98 19.9C375.447 21.1667 377.913 22.4667 380.38 23.8C382.847 25.1333 385.28 26.5 387.68 27.9C390.08 29.3 392.48 30.7 394.88 32.1C397.213 33.5667 399.547 35.0667 401.88 36.6C404.147 38.1333 406.413 39.7 408.68 41.3C410.947 42.9 413.147 44.5333 415.28 46.2C417.48 47.9333 419.647 49.7 421.78 51.5C423.847 53.2333 425.913 55.0333 427.98 56.9C430.047 58.8333 432.047 60.7667 433.98 62.7C435.913 64.7 437.847 66.7333 439.78 68.8C441.647 70.9333 443.48 73.1 445.28 75.3C447.013 77.5 448.747 79.7667 450.48 82.1C452.147 84.4333 453.78 86.8333 455.38 89.3C456.98 91.7667 458.513 94.3333 459.98 97C461.513 99.6 462.947 102.267 464.28 105C465.68 107.733 467.013 110.567 468.28 113.5C469.547 116.367 470.747 119.333 471.88 122.4C473.013 125.467 474.08 128.633 475.08 131.9C476.08 135.1 477.047 138.4 477.98 141.8C478.847 145.2 479.647 148.667 480.38 152.2C481.113 155.733 481.78 159.333 482.38 163C483.047 166.667 483.58 170.367 483.98 174.1C484.447 177.833 484.847 181.6 485.18 185.4C485.447 189.2 485.647 192.967 485.78 196.7C485.913 200.5 485.98 204.267 485.98 208C485.913 211.733 485.78 215.433 485.58 219.1C485.38 222.767 485.113 226.4 484.78 230C484.38 233.533 483.88 237 483.28 240.4C482.747 243.8 482.08 247.133 481.28 250.4C480.547 253.6 479.68 256.7 478.68 259.7C477.747 262.7 476.68 265.6 475.48 268.4C474.28 271.133 473.013 273.733 471.68 276.2C470.28 278.667 468.78 280.933 467.18 283C465.58 285.133 463.847 287.1 461.98 288.9C460.18 290.633 458.247 292.167 456.18 293.5C454.113 294.833 451.947 295.967 449.68 296.9Z" fill="url(#paint1_linear_157_22)" fill-opacity="0.72"/>
<path fill-rule="evenodd" clip-rule="evenodd" d="M331.033 726.6C328.9 728.467 326.533 730.167 323.933 731.7C321.333 733.233 318.533 734.6 315.533 735.8C312.467 737.067 309.267 738.2 305.933 739.2C302.6 740.267 299.1 741.2 295.433 742C291.767 742.8 288.033 743.567 284.233 744.3C280.367 744.967 276.433 745.6 272.433 746.2C268.433 746.733 264.4 747.267 260.333 747.8C256.267 748.333 252.2 748.867 248.133 749.4C244.067 749.867 240 750.4 235.933 751C231.933 751.533 227.967 752.1 224.033 752.7C220.1 753.3 216.233 753.933 212.433 754.6C208.633 755.267 204.9 755.9 201.233 756.5C197.5 757.167 193.867 757.8 190.333 758.4C186.733 759 183.2 759.567 179.733 760.1C176.2 760.633 172.767 761.1 169.433 761.5C166.033 761.9 162.7 762.233 159.433 762.5C156.1 762.767 152.833 762.933 149.633 763C146.433 763.067 143.267 763 140.133 762.8C137.067 762.6 134 762.3 130.933 761.9C127.933 761.433 124.933 760.8 121.933 760C119 759.267 116.1 758.4 113.233 757.4C110.367 756.333 107.567 755.133 104.833 753.8C102.1 752.533 99.4 751.133 96.7333 749.6C94.1333 748 91.6 746.333 89.1333 744.6C86.6667 742.867 84.2667 741 81.9333 739C79.6 737.067 77.4 735.067 75.3333 733C73.2 730.867 71.1667 728.667 69.2333 726.4C67.3 724.133 65.4667 721.833 63.7333 719.5C62 717.1 60.4 714.667 58.9333 712.2C57.4667 709.733 56.1333 707.233 54.9333 704.7C53.6667 702.167 52.5667 699.633 51.6333 697.1C50.6333 694.5 49.7333 691.9 48.9333 689.3C48.2 686.633 47.5667 684 47.0333 681.4C46.5 678.733 46.0667 676.1 45.7333 673.5C45.4667 670.833 45.2667 668.167 45.1333 665.5C45 662.9 44.9667 660.3 45.0333 657.7C45.1667 655.1 45.3667 652.5 45.6333 649.9C45.8333 647.367 46.1667 644.833 46.6333 642.3C47.1 639.767 47.6 637.3 48.1333 634.9C48.7333 632.433 49.4333 630.033 50.2333 627.7C50.9667 625.3 51.7667 622.967 52.6333 620.7C53.5 618.367 54.4333 616.067 55.4333 613.8C56.4333 611.467 57.4667 609.167 58.5333 606.9C59.6 604.567 60.7 602.233 61.8333 599.9C62.9667 597.567 64.1333 595.2 65.3333 592.8C66.5333 590.4 67.7333 587.933 68.9333 585.4C70.1333 582.867 71.3333 580.267 72.5333 577.6C73.7333 574.933 74.9 572.2 76.0333 569.4C77.2333 566.533 78.4 563.6 79.5333 560.6C80.6667 557.533 81.7667 554.367 82.8333 551.1C83.9 547.833 84.9667 544.5 86.0333 541.1C87.0333 537.7 88.0667 534.267 89.1333 530.8C90.2 527.333 91.3 523.867 92.4333 520.4C93.5 516.933 94.6333 513.5 95.8333 510.1C97.0333 506.767 98.3 503.5 99.6333 500.3C100.967 497.1 102.4 494.033 103.933 491.1C105.467 488.167 107.067 485.433 108.733 482.9C110.467 480.3 112.333 477.933 114.333 475.8C116.267 473.667 118.367 471.767 120.633 470.1C122.9 468.5 125.333 467.167 127.933 466.1C130.467 465.033 133.167 464.267 136.033 463.8C138.9 463.267 141.867 463 144.933 463C148 463 151.167 463.2 154.433 463.6C157.633 464.067 160.9 464.7 164.233 465.5C167.567 466.367 170.933 467.367 174.333 468.5C177.733 469.7 181.133 471.033 184.533 472.5C187.867 473.9 191.2 475.467 194.533 477.2C197.8 478.867 201.033 480.633 204.233 482.5C207.433 484.367 210.533 486.333 213.533 488.4C216.533 490.4 219.4 492.433 222.133 494.5C224.933 496.633 227.6 498.767 230.133 500.9C232.733 503.1 235.2 505.3 237.533 507.5C239.933 509.767 242.233 512.033 244.433 514.3C246.633 516.567 248.767 518.833 250.833 521.1C252.967 523.433 255 525.767 256.933 528.1C258.867 530.433 260.8 532.8 262.733 535.2C264.6 537.533 266.433 539.867 268.233 542.2C270.033 544.6 271.833 546.967 273.633 549.3C275.367 551.633 277.133 553.967 278.933 556.3C280.667 558.633 282.433 560.967 284.233 563.3C286.033 565.633 287.833 567.933 289.633 570.2C291.367 572.533 293.133 574.833 294.933 577.1C296.733 579.433 298.5 581.767 300.233 584.1C301.967 586.433 303.7 588.8 305.433 591.2C307.167 593.6 308.867 596.033 310.533 598.5C312.2 600.967 313.867 603.467 315.533 606C317.133 608.6 318.7 611.2 320.233 613.8C321.833 616.467 323.367 619.2 324.833 622C326.3 624.8 327.733 627.667 329.133 630.6C330.533 633.533 331.867 636.533 333.133 639.6C334.467 642.733 335.7 645.9 336.833 649.1C337.967 652.3 339 655.533 339.933 658.8C340.867 662.067 341.7 665.333 342.433 668.6C343.167 671.867 343.733 675.1 344.133 678.3C344.6 681.5 344.867 684.667 344.933 687.8C345.067 690.933 345 694 344.733 697C344.533 699.933 344.1 702.8 343.433 705.6C342.767 708.333 341.867 710.967 340.733 713.5C339.667 716.033 338.3 718.4 336.633 720.6C335.033 722.8 333.167 724.8 331.033 726.6Z" fill="url(#paint2_radial_157_22)" fill-opacity="0.72"/>
<path fill-rule="evenodd" clip-rule="evenodd" d="M484.605 218.146C483.393 220.812 481.968 223.488 480.33 226.172C478.599 228.87 476.674 231.551 474.555 234.214C472.451 236.969 470.126 239.688 467.581 242.368C465.09 245.088 462.405 247.79 459.527 250.474C456.648 253.158 453.604 255.844 450.392 258.532C447.22 261.165 443.908 263.821 440.456 266.497C437.044 269.121 433.484 271.718 429.778 274.291C426.165 276.85 422.405 279.383 418.498 281.892C414.684 284.385 410.817 286.84 406.896 289.255C402.881 291.685 398.86 294.067 394.831 296.404C390.748 298.7 386.659 300.951 382.562 303.154C378.465 305.358 374.361 307.515 370.25 309.625C366.139 311.736 362.06 313.746 358.013 315.656C353.981 317.659 349.981 319.561 346.013 321.363C342.045 323.166 338.156 324.86 334.346 326.448C330.497 328.088 326.753 329.642 323.115 331.107C319.477 332.572 315.918 333.93 312.438 335.181C309.011 336.47 305.691 337.672 302.476 338.787C299.246 339.808 296.103 340.768 293.046 341.667C290.042 342.605 287.117 343.437 284.272 344.16C281.426 344.884 278.666 345.546 275.992 346.148C273.358 346.696 270.81 347.183 268.347 347.609C265.925 347.982 263.541 348.301 261.197 348.565C258.946 348.816 256.801 348.979 254.762 349.054C252.629 349.143 250.63 349.164 248.762 349.117C246.841 349.031 245.006 348.884 243.257 348.676C241.562 348.507 239.926 348.258 238.349 347.928C236.772 347.598 235.301 347.18 233.936 346.675C232.531 346.223 231.212 345.71 229.979 345.137C228.786 344.509 227.659 343.848 226.598 343.152C225.537 342.457 224.555 341.654 223.652 340.744C222.763 339.926 221.961 339.048 221.244 338.109C220.473 337.13 219.796 336.138 219.212 335.13C218.614 334.03 218.082 332.896 217.616 331.727C217.204 330.598 216.824 329.369 216.477 328.039C216.183 326.749 215.948 325.378 215.773 323.926C215.558 322.529 215.402 321.05 215.306 319.491C215.209 317.932 215.172 316.292 215.194 314.572C215.176 312.905 215.237 311.131 215.377 309.25C215.478 307.422 215.611 305.494 215.776 303.465C215.901 301.49 216.106 299.408 216.389 297.218C216.58 295.043 216.802 292.767 217.057 290.391C217.366 288.054 217.66 285.624 217.94 283.101C218.259 280.524 218.591 277.874 218.935 275.15C219.28 272.426 219.63 269.582 219.985 266.618C220.301 263.708 220.649 260.698 221.029 257.587C221.355 254.436 221.714 251.186 222.105 247.835C222.403 244.498 222.707 241.041 223.015 237.465C223.324 233.888 223.638 230.191 223.958 226.374C224.277 222.557 224.555 218.627 224.793 214.584C225.03 210.542 225.252 206.406 225.461 202.177C225.669 197.947 225.844 193.652 225.984 189.29C226.218 184.914 226.417 180.472 226.583 175.963C226.802 171.494 227.014 166.978 227.219 162.416C227.384 157.907 227.596 153.391 227.855 148.868C228.099 144.252 228.351 139.682 228.609 135.159C228.922 130.676 229.234 126.192 229.547 121.709C229.873 117.318 230.254 112.967 230.688 108.656C231.069 104.305 231.49 100.067 231.953 95.9417C232.509 91.8022 233.08 87.7559 233.664 83.8028C234.21 79.9035 234.843 76.1099 235.564 72.422C236.338 68.7736 237.134 65.265 237.952 61.8961C238.77 58.5272 239.709 55.3304 240.77 52.3056C241.739 49.2952 242.809 46.4836 243.981 43.871C245.114 41.3122 246.342 38.9057 247.665 36.6515C249.002 34.4905 250.428 32.602 251.945 30.9858C253.447 29.2764 255.085 27.8322 256.859 26.6533C258.54 25.4888 260.35 24.5428 262.289 23.8155C264.189 23.142 266.191 22.6674 268.294 22.3917C270.344 22.0766 272.504 22.007 274.773 22.1829C276.987 22.3194 279.304 22.6548 281.724 23.1891C284.143 23.7235 286.61 24.4173 289.126 25.2707C291.696 26.1634 294.287 27.196 296.899 28.3683C299.605 29.5263 302.359 30.8438 305.162 32.3208C307.964 33.7978 310.808 35.3877 313.693 37.0905C316.578 38.7933 319.504 40.609 322.471 42.5376C325.478 44.4124 328.526 46.4002 331.615 48.5008C334.665 50.6553 337.768 52.8491 340.926 55.0824C344.083 57.3156 347.274 59.6152 350.499 61.9811C353.725 64.347 356.957 66.7595 360.197 69.2186C363.476 71.6239 366.789 74.0955 370.136 76.6334C373.429 79.1319 376.723 81.6304 380.016 84.129C383.403 86.6131 386.77 89.1242 390.117 91.6621C393.45 94.1069 396.789 96.5982 400.137 99.1362C403.469 101.581 406.802 104.026 410.135 106.47C413.428 108.969 416.688 111.401 419.913 113.767C423.153 116.226 426.346 118.692 429.492 121.166C432.585 123.6 435.651 126.014 438.69 128.408C441.635 130.817 444.534 133.233 447.387 135.657C450.146 138.094 452.832 140.519 455.445 142.931C458.057 145.344 460.576 147.771 463.002 150.212C465.375 152.613 467.607 155.036 469.7 157.481C471.793 159.925 473.765 162.365 475.618 164.798C477.431 167.286 479.051 169.756 480.477 172.207C481.996 174.645 483.283 177.118 484.336 179.627C485.483 182.121 486.416 184.625 487.136 187.137C487.856 189.65 488.343 192.198 488.597 194.782C488.891 197.313 488.924 199.859 488.698 202.422C488.526 205.024 488.113 207.615 487.461 210.195C486.769 212.829 485.817 215.48 484.605 218.146Z" fill="url(#paint3_radial_157_22)" fill-opacity="0.72"/>
<path fill-rule="evenodd" clip-rule="evenodd" d="M80.248 299.947C78.568 299.877 76.9067 299.737 75.264 299.526C73.584 299.35 71.9227 299.087 70.28 298.736C68.6 298.42 66.9387 298.034 65.296 297.577C63.6907 297.156 62.0667 296.664 60.424 296.103C58.8187 295.541 57.232 294.926 55.664 294.259C54.0587 293.592 52.4907 292.872 50.96 292.1C49.4293 291.328 47.8987 290.502 46.368 289.625C44.8747 288.782 43.3813 287.869 41.888 286.886C40.432 285.938 38.9947 284.937 37.576 283.884C36.1573 282.866 34.776 281.795 33.432 280.671C32.088 279.548 30.7627 278.389 29.456 277.195C28.1493 276.002 26.88 274.773 25.648 273.509C24.416 272.28 23.2027 270.998 22.008 269.664C20.8507 268.33 19.7307 266.978 18.648 265.609C17.5653 264.239 16.52 262.852 15.512 261.448C14.4667 260.008 13.496 258.569 12.6 257.129C11.6667 255.655 10.7707 254.162 9.912 252.653C9.09067 251.178 8.30667 249.668 7.56 248.123C6.81333 246.614 6.12267 245.069 5.488 243.489C4.85333 241.944 4.27467 240.381 3.752 238.801C3.192 237.256 2.70667 235.676 2.296 234.061C1.848 232.481 1.47467 230.901 1.176 229.321C0.877333 227.741 0.634667 226.144 0.448 224.529C0.261333 222.949 0.130667 221.369 0.056 219.789C-0.0186667 218.209 -0.0186667 216.629 0.056 215.049C0.130667 213.469 0.261333 211.906 0.448 210.361C0.634667 208.781 0.877333 207.219 1.176 205.674C1.47467 204.164 1.848 202.637 2.296 201.092C2.70667 199.582 3.192 198.09 3.752 196.615C4.27467 195.141 4.85333 193.666 5.488 192.191C6.12267 190.752 6.81333 189.312 7.56 187.873C8.30667 186.468 9.09067 185.081 9.912 183.712C10.7707 182.308 11.6667 180.938 12.6 179.604C13.496 178.27 14.4667 176.971 15.512 175.707C16.52 174.408 17.5653 173.144 18.648 171.915C19.7307 170.686 20.8507 169.492 22.008 168.333C23.2027 167.14 24.416 165.998 25.648 164.91C26.88 163.786 28.1493 162.698 29.456 161.645C30.7627 160.591 32.088 159.573 33.432 158.59C34.776 157.607 36.1573 156.676 37.576 155.799C38.9947 154.886 40.432 154.008 41.888 153.165C43.3813 152.358 44.8747 151.568 46.368 150.795C47.8613 150.058 49.392 149.356 50.96 148.689C52.4907 148.057 54.0587 147.442 55.664 146.845C57.232 146.284 58.8187 145.774 60.424 145.318C62.0667 144.826 63.6907 144.388 65.296 144.001C66.9387 143.65 68.6 143.334 70.28 143.053C71.9227 142.772 73.584 142.544 75.264 142.369C76.9067 142.193 78.568 142.088 80.248 142.053C81.928 141.982 83.608 141.982 85.288 142.053C86.968 142.088 88.648 142.193 90.328 142.369C92.008 142.544 93.688 142.772 95.368 143.053C97.048 143.334 98.7093 143.65 100.352 144.001C102.032 144.388 103.693 144.826 105.336 145.318C106.979 145.774 108.603 146.284 110.208 146.845C111.813 147.442 113.419 148.057 115.024 148.689C116.592 149.356 118.16 150.058 119.728 150.795C121.259 151.568 122.789 152.358 124.32 153.165C125.813 154.008 127.288 154.886 128.744 155.799C130.2 156.676 131.637 157.607 133.056 158.59C134.475 159.573 135.856 160.591 137.2 161.645C138.544 162.698 139.869 163.786 141.176 164.91C142.445 165.998 143.677 167.14 144.872 168.333C146.104 169.492 147.299 170.686 148.456 171.915C149.576 173.144 150.659 174.408 151.704 175.707C152.787 176.971 153.813 178.27 154.784 179.604C155.755 180.938 156.669 182.308 157.528 183.712C158.424 185.081 159.264 186.468 160.048 187.873C160.795 189.312 161.523 190.752 162.232 192.191C162.904 193.666 163.52 195.141 164.08 196.615C164.64 198.09 165.144 199.582 165.592 201.092C166.04 202.637 166.432 204.164 166.768 205.674C167.067 207.219 167.328 208.781 167.552 210.361C167.739 211.906 167.869 213.469 167.944 215.049C168.019 216.629 168.019 218.209 167.944 219.789C167.869 221.369 167.739 222.949 167.552 224.529C167.328 226.144 167.067 227.741 166.768 229.321C166.432 230.901 166.04 232.481 165.592 234.061C165.144 235.676 164.64 237.256 164.08 238.801C163.52 240.381 162.904 241.944 162.232 243.489C161.523 245.069 160.795 246.614 160.048 248.123C159.264 249.668 158.424 251.178 157.528 252.653C156.669 254.162 155.755 255.655 154.784 257.129C153.813 258.569 152.787 260.008 151.704 261.448C150.659 262.852 149.576 264.239 148.456 265.609C147.299 266.978 146.104 268.33 144.872 269.664C143.677 270.998 142.445 272.28 141.176 273.509C139.869 274.773 138.544 276.002 137.2 277.195C135.856 278.389 134.475 279.548 133.056 280.671C131.637 281.795 130.2 282.866 128.744 283.884C127.288 284.937 125.813 285.938 124.32 286.886C122.789 287.869 121.259 288.782 119.728 289.625C118.16 290.502 116.592 291.328 115.024 292.1C113.419 292.872 111.813 293.592 110.208 294.259C108.603 294.926 106.979 295.541 105.336 296.103C103.693 296.664 102.032 297.156 100.352 297.577C98.7093 298.034 97.048 298.42 95.368 298.736C93.688 299.087 92.008 299.35 90.328 299.526C88.648 299.737 86.968 299.877 85.288 299.947C83.608 300.018 81.928 300.018 80.248 299.947Z" fill="url(#paint4_radial_157_22)"/>
<path fill-rule="evenodd" clip-rule="evenodd" d="M317.939 512.557C317.457 511.574 317.041 510.567 316.692 509.536C316.317 508.504 316.008 507.45 315.765 506.371C315.496 505.292 315.281 504.189 315.118 503.062C314.982 501.935 314.886 500.797 314.83 499.647C314.774 498.498 314.757 497.336 314.781 496.163C314.831 494.965 314.921 493.768 315.05 492.572C315.153 491.376 315.323 490.168 315.558 488.949C315.767 487.73 316.016 486.498 316.305 485.256C316.594 484.013 316.922 482.783 317.289 481.567C317.657 480.326 318.065 479.085 318.512 477.846C318.959 476.606 319.433 475.367 319.932 474.128C320.432 472.914 320.971 471.689 321.55 470.452C322.129 469.24 322.734 468.041 323.364 466.855C323.996 465.644 324.653 464.446 325.337 463.261C326.02 462.101 326.716 460.941 327.426 459.781C328.161 458.647 328.923 457.514 329.712 456.381C330.473 455.272 331.26 454.189 332.073 453.132C332.887 452.049 333.726 450.992 334.592 449.961C335.431 448.928 336.296 447.922 337.187 446.941C338.077 445.96 338.994 445.004 339.937 444.074C340.853 443.143 341.795 442.238 342.763 441.358C343.705 440.478 344.672 439.623 345.666 438.794C346.633 437.964 347.625 437.173 348.643 436.419C349.662 435.64 350.693 434.911 351.736 434.233C352.754 433.529 353.797 432.851 354.866 432.198C355.935 431.57 357.002 430.979 358.07 430.426C359.164 429.849 360.257 429.308 361.349 428.806C362.441 428.328 363.546 427.876 364.663 427.448C365.78 427.046 366.91 426.669 368.052 426.317C369.168 425.99 370.295 425.7 371.436 425.448C372.577 425.171 373.729 424.957 374.894 424.806C376.033 424.628 377.184 424.502 378.347 424.425C379.51 424.348 380.673 424.309 381.834 424.307C382.996 424.33 384.156 424.391 385.316 424.489C386.476 424.587 387.635 424.722 388.793 424.895C389.951 425.093 391.094 425.328 392.224 425.6C393.38 425.873 394.523 426.183 395.651 426.53C396.806 426.878 397.934 427.262 399.034 427.684C400.161 428.106 401.261 428.565 402.333 429.061C403.432 429.557 404.504 430.09 405.549 430.66C406.62 431.231 407.664 431.826 408.681 432.446C409.699 433.065 410.702 433.722 411.692 434.416C412.681 435.11 413.644 435.829 414.579 436.571C415.515 437.314 416.424 438.081 417.306 438.873C418.187 439.665 419.042 440.481 419.871 441.322C420.699 442.162 421.5 443.027 422.274 443.917C423.023 444.78 423.757 445.682 424.478 446.62C425.172 447.533 425.827 448.47 426.441 449.431C427.082 450.393 427.67 451.366 428.205 452.35C428.766 453.36 429.287 454.37 429.768 455.378C430.223 456.411 430.651 457.443 431.053 458.475C431.428 459.531 431.777 460.587 432.099 461.642C432.395 462.697 432.664 463.776 432.906 464.88C433.148 465.958 433.338 467.036 433.475 468.112C433.638 469.214 433.761 470.316 433.845 471.416C433.928 472.541 433.972 473.654 433.976 474.752C434.007 475.877 433.985 476.988 433.91 478.085C433.861 479.208 433.773 480.317 433.646 481.413C433.518 482.534 433.35 483.642 433.144 484.737C432.963 485.857 432.743 486.964 432.484 488.058C432.224 489.151 431.925 490.244 431.587 491.336C431.275 492.404 430.924 493.47 430.533 494.536C430.142 495.602 429.725 496.668 429.281 497.733C428.838 498.773 428.368 499.8 427.873 500.814C427.351 501.852 426.816 502.865 426.268 503.853C425.694 504.841 425.107 505.815 424.507 506.777C423.88 507.764 423.241 508.712 422.589 509.623C421.91 510.559 421.205 511.468 420.475 512.353C419.77 513.263 419.027 514.147 418.244 515.005C417.488 515.839 416.693 516.673 415.858 517.505C415.049 518.313 414.202 519.095 413.316 519.852C412.455 520.634 411.569 521.39 410.657 522.121C409.745 522.827 408.82 523.52 407.883 524.201C406.919 524.881 405.942 525.536 404.953 526.165C403.937 526.794 402.922 527.398 401.907 527.977C400.866 528.556 399.798 529.109 398.705 529.637C397.639 530.165 396.547 530.655 395.429 531.107C394.337 531.585 393.206 532.024 392.036 532.425C390.892 532.852 389.736 533.229 388.568 533.555C387.373 533.906 386.179 534.231 384.984 534.532C383.764 534.808 382.532 535.058 381.286 535.283C380.041 535.508 378.783 535.695 377.513 535.844C376.242 536.019 374.959 536.143 373.664 536.217C372.368 536.316 371.06 536.377 369.74 536.401C368.446 536.425 367.126 536.411 365.78 536.36C364.461 536.308 363.13 536.219 361.786 536.093C360.468 535.992 359.137 535.84 357.795 535.639C356.478 535.463 355.162 535.249 353.847 534.998C352.532 534.747 351.231 534.471 349.943 534.171C348.656 533.846 347.382 533.496 346.123 533.121C344.863 532.746 343.617 532.335 342.385 531.885C341.179 531.462 339.987 530.989 338.809 530.466C337.631 529.968 336.493 529.433 335.396 528.862C334.271 528.315 333.188 527.719 332.144 527.074C331.101 526.454 330.084 525.797 329.095 525.103C328.132 524.41 327.195 523.692 326.286 522.949C325.403 522.208 324.561 521.429 323.758 520.614C322.956 519.799 322.207 518.96 321.512 518.097C320.816 517.234 320.161 516.335 319.546 515.399C318.957 514.488 318.421 513.541 317.939 512.557Z" fill="url(#paint5_linear_157_22)"/>
<defs>
<linearGradient id="paint0_linear_157_22" x1="244.423" y1="0" x2="244.423" y2="763.025" gradientUnits="userSpaceOnUse">
<stop stop-color="#DBA96F"/>
<stop offset="1" stop-color="#FE8F76" stop-opacity="0.58"/>
</linearGradient>
<linearGradient id="paint1_linear_157_22" x1="244.423" y1="0" x2="244.423" y2="763.025" gradientUnits="userSpaceOnUse">
<stop stop-color="#DBA96F"/>
<stop offset="1" stop-color="#FE8F76" stop-opacity="0.58"/>
</linearGradient>
<radialGradient id="paint2_radial_157_22" cx="0" cy="0" r="1" gradientUnits="userSpaceOnUse" gradientTransform="translate(244.423 381.513) rotate(90) scale(381.513 244.423)">
<stop stop-color="#DBA96F"/>
<stop offset="1" stop-color="#FE8F76" stop-opacity="0.58"/>
</radialGradient>
<radialGradient id="paint3_radial_157_22" cx="0" cy="0" r="1" gradientUnits="userSpaceOnUse" gradientTransform="translate(382.112 533.978) rotate(-132.307) scale(440.68 561.517)">
<stop offset="0.505585" stop-color="#DBA96F"/>
<stop offset="1" stop-color="#FE8F76" stop-opacity="0.58"/>
</radialGradient>
<radialGradient id="paint4_radial_157_22" cx="0" cy="0" r="1" gradientUnits="userSpaceOnUse" gradientTransform="translate(244.423 333.22) rotate(87.0769) scale(285.298 183.616)">
<stop stop-color="#0C1010" stop-opacity="0.83"/>
<stop offset="1" stop-color="#0C1010"/>
</radialGradient>
<linearGradient id="paint5_linear_157_22" x1="374" y1="423" x2="402" y2="573" gradientUnits="userSpaceOnUse">
<stop/>
<stop offset="1" stop-color="#0E0A21" stop-opacity="0.57"/>
</linearGradient>
</defs>
</svg>
