<svg width="1201" height="275" viewBox="0 0 1201 275" fill="none" xmlns="http://www.w3.org/2000/svg">
<path fill-rule="evenodd" clip-rule="evenodd" d="M0.44519 22.7878L33.4452 34.7878C67.4452 46.7878 133.445 70.7878 200.445 82.7878C267.445 94.7878 333.445 94.7878 400.445 106.788C467.445 118.788 533.445 142.788 600.445 136.788C667.445 130.788 733.445 94.7878 800.445 58.7878C867.445 22.7878 933.445 -13.2122 1000.45 4.78775C1067.45 22.7878 1133.45 94.7878 1167.45 130.788L1200.45 166.788V274.788H1167.45C1133.45 274.788 1067.45 274.788 1000.45 274.788C933.445 274.788 867.445 274.788 800.445 274.788C733.445 274.788 667.445 274.788 600.445 274.788C533.445 274.788 467.445 274.788 400.445 274.788C333.445 274.788 267.445 274.788 200.445 274.788C133.445 274.788 67.4452 274.788 33.4452 274.788H0.44519V22.7878Z" fill="url(#paint0_radial_159_109)"/>
<defs>
<radialGradient id="paint0_radial_159_109" cx="0" cy="0" r="1" gradientUnits="userSpaceOnUse" gradientTransform="translate(600.445 137.394) rotate(90) scale(137.394 600)">
<stop stop-color="#FEEDC2"/>
<stop offset="1" stop-color="#FFEBB9" stop-opacity="0.36"/>
</radialGradient>
</defs>
</svg>
